<svg width="24" height="24" viewBox="0 0 24 24" fill="none" xmlns="http://www.w3.org/2000/svg">
<g clip-path="url(#clip0_2215_1970)">
<path d="M9 5C10.6569 5 12 6.34315 12 8C12 9.65685 10.6569 11 9 11C7.34315 11 6 9.65685 6 8C6 6.34315 7.34315 5 9 5Z" stroke="white" stroke-width="2"/>
<path d="M9 15C10.2099 15 12.0832 15.3115 13.6289 15.9307C14.4009 16.2399 15.0289 16.6012 15.4473 16.9873C15.8588 17.3672 16 17.7023 16 18V19H2V18C2 17.7023 2.14117 17.3672 2.55273 16.9873C2.97109 16.6012 3.5991 16.2399 4.37109 15.9307C5.91681 15.3115 7.79012 15 9 15Z" stroke="white" stroke-width="2"/>
<mask id="path-3-inside-1_2215_1970" fill="white">
<path d="M20 10V7H18V10H15V12H18V15H20V12H23V10H20Z"/>
</mask>
<path d="M20 10H18V12H20V10ZM20 7H22V5H20V7ZM18 7V5H16V7H18ZM18 10V12H20V10H18ZM15 10V8H13V10H15ZM15 12H13V14H15V12ZM18 12H20V10H18V12ZM18 15H16V17H18V15ZM20 15V17H22V15H20ZM20 12V10H18V12H20ZM23 12V14H25V12H23ZM23 10H25V8H23V10ZM20 10H22V7H20H18V10H20ZM20 7V5H18V7V9H20V7ZM18 7H16V10H18H20V7H18ZM18 10V8H15V10V12H18V10ZM15 10H13V12H15H17V10H15ZM15 12V14H18V12V10H15V12ZM18 12H16V15H18H20V12H18ZM18 15V17H20V15V13H18V15ZM20 15H22V12H20H18V15H20ZM20 12V14H23V12V10H20V12ZM23 12H25V10H23H21V12H23ZM23 10V8H20V10V12H23V10Z" fill="white" mask="url(#path-3-inside-1_2215_1970)"/>
</g>
<defs>
<clipPath id="clip0_2215_1970">
<rect width="24" height="24" fill="white"/>
</clipPath>
</defs>
</svg>
