<svg width="24" height="25" viewBox="0 0 24 25" fill="none" xmlns="http://www.w3.org/2000/svg">
<path d="M21.9999 17.2536V20.2536C22.0011 20.5321 21.944 20.8078 21.8324 21.0629C21.7209 21.3181 21.5572 21.5472 21.352 21.7355C21.1468 21.9237 20.9045 22.0671 20.6407 22.1563C20.3769 22.2455 20.0973 22.2787 19.8199 22.2536C16.7428 21.9192 13.7869 20.8677 11.1899 19.1836C8.77376 17.6483 6.72527 15.5998 5.18993 13.1836C3.49991 10.5748 2.44818 7.60459 2.11993 4.51359C2.09494 4.23706 2.12781 3.95835 2.21643 3.69522C2.30506 3.43208 2.4475 3.19028 2.6347 2.98521C2.82189 2.78015 3.04974 2.6163 3.30372 2.50412C3.55771 2.39193 3.83227 2.33385 4.10993 2.33359H7.10993C7.59524 2.32882 8.06572 2.50067 8.43369 2.81713C8.80166 3.13358 9.04201 3.57304 9.10993 4.05359C9.23656 5.01366 9.47138 5.95632 9.80993 6.86359C9.94448 7.22152 9.9736 7.61051 9.89384 7.98447C9.81408 8.35844 9.6288 8.7017 9.35993 8.97359L8.08993 10.2436C9.51349 12.7471 11.5864 14.82 14.0899 16.2436L15.3599 14.9736C15.6318 14.7047 15.9751 14.5194 16.3491 14.4397C16.723 14.3599 17.112 14.389 17.4699 14.5236C18.3772 14.8621 19.3199 15.097 20.2799 15.2236C20.7657 15.2921 21.2093 15.5368 21.5265 15.9111C21.8436 16.2854 22.0121 16.7632 21.9999 17.2536Z" stroke="#1474FF" stroke-width="2" stroke-linecap="round" stroke-linejoin="round"/>
</svg>
