<svg width="24" height="24" viewBox="0 0 24 24" fill="none" xmlns="http://www.w3.org/2000/svg">
<g clip-path="url(#clip0_2215_1980)">
<path d="M18 2.5C19.3839 2.5 20.5 3.61614 20.5 5C20.5 6.38386 19.3839 7.5 18 7.5C17.3454 7.5 16.7545 7.24417 16.2998 6.82324L16.0283 6.57129L15.708 6.75781L8.6582 10.8682L8.34375 11.0508L8.42188 11.4062C8.46948 11.6253 8.5 11.8139 8.5 12C8.5 12.1861 8.46948 12.3747 8.42188 12.5938L8.34375 12.9492L8.6582 13.1318L15.7881 17.2822L16.1045 17.4658L16.375 17.2207C16.8126 16.8251 17.3762 16.5801 18 16.5801C19.3339 16.5801 20.4199 17.6661 20.4199 19C20.4199 20.3339 19.3339 21.4199 18 21.4199C16.6661 21.4199 15.5801 20.3339 15.5801 19C15.5801 18.8247 15.6041 18.6439 15.6465 18.4658L15.7324 18.1055L15.4121 17.918L8.29199 13.7578L7.97266 13.5713L7.7002 13.8232C7.24554 14.2442 6.65464 14.5 6 14.5C4.61614 14.5 3.5 13.3839 3.5 12C3.5 10.6161 4.61614 9.5 6 9.5C6.65463 9.5 7.24554 9.75583 7.7002 10.1768L7.97168 10.4287L8.29199 10.2422L15.3418 6.13184L15.6562 5.94922L15.5781 5.59375C15.5305 5.37474 15.5 5.18606 15.5 5C15.5 3.61614 16.6161 2.5 18 2.5Z" stroke="#0F57BF"/>
</g>
<defs>
<clipPath id="clip0_2215_1980">
<rect width="24" height="24" fill="white"/>
</clipPath>
</defs>
</svg>
