<svg width="543" height="532" viewBox="0 0 543 532" fill="none" xmlns="http://www.w3.org/2000/svg">
<g filter="url(#filter0_i_2203_2747)">
<path d="M254.982 111.699L257.778 113.29C263.766 123.723 268.975 134.526 273.394 145.702L273.128 148.771C272.524 149.279 271.81 149.771 271.066 149.653C236.4 115.393 177.308 117.832 146.387 157.81C123.114 187.898 124.396 224.31 127.327 260.299C127.327 260.334 127.604 260.191 127.95 259.994L129.574 260.693C131.701 270.92 134.718 281.343 140.832 289.953C141.46 291.136 141.37 292.032 140.052 292.618C122.164 272.772 105.562 251.236 91.8058 228.34C82.1022 212.188 71.7349 192.484 68.2205 173.982C68.3814 171.514 68.125 169.042 67.4663 166.569C66.7624 165.534 66.2596 164.052 65.953 162.121C62.8659 135.22 67.6322 110.64 84.8725 89.1036C122.802 41.7211 194.775 46.317 236.118 86.8278C238.652 89.3105 242.921 96.2905 246.666 100.581" fill="url(#paint0_linear_2203_2747)"/>
<path d="M314.717 59.7943C329.68 54.9522 346.1 54.6074 361.611 57.1836C405.755 64.5085 436.46 100.66 438.752 143.919C441.06 187.543 412.226 232.901 385.77 266.274C378.057 275.998 355.864 304.022 346.714 309.539C323.34 323.637 293.877 305.756 295.777 278.865C296.878 263.26 308.573 255.142 317.719 244.029C328.684 230.704 340.017 216.601 348.594 201.641C355.799 189.08 362.28 175.465 360.837 160.633C361.958 159.584 362.657 160.027 362.984 161.436C374.703 123.846 361.948 65.937 315.919 61.1638L314.707 59.7894L314.717 59.7943Z" fill="url(#paint1_linear_2203_2747)"/>
<path d="M200.541 188.809C177.484 210.567 190.28 244.97 208.143 265.334C228.968 289.076 253.836 299.283 277.914 317.208C302.776 335.715 296.129 375.561 264.847 382.738C248.35 386.521 237.913 380.27 225.303 371.187C204.905 356.483 185.136 337.873 167.268 320.79C164.482 315.647 158.655 310.411 153.657 307.445C150.988 304.623 140.801 296.032 140.047 292.618C139.137 288.505 138.116 289.106 135.97 285.121C132.988 279.584 128.664 266.107 127.95 259.994C124.069 253.689 135.683 230.635 140.464 227.271L142.315 227.369C143.365 224.34 144.527 222.956 146.523 220.65C150.002 216.631 154.321 213.158 158.952 211.06C159.872 208.4 161.134 207.41 162.732 208.094C163.829 207.277 164.507 206.277 164.764 205.094C175.025 197.543 186.086 191.804 197.947 187.878L200.536 188.814L200.541 188.809Z" fill="url(#paint2_linear_2203_2747)"/>
<path d="M245.047 98.6057C252.152 92.7389 296.356 63.8385 305.26 62.7647C318.388 58.4988 331.244 68.1192 339.71 77.242C351.873 90.3499 357.836 105.211 360.364 122.777C361.078 127.743 361.355 146.412 360.968 150.052C360.767 151.973 361.606 155.402 360.646 153.914C353.748 139.58 332.516 129.299 317.186 132.669C302.972 135.796 286.476 146.501 277.104 152.269C275.938 152.988 275.46 153.407 275.531 153.707C275.561 153.85 275.415 153.968 275.269 153.968H274.208C274.123 153.968 274.043 153.929 273.997 153.855C273.53 153.121 271.609 149.333 272.489 148.83C272.61 148.761 272.68 148.628 272.625 148.5C266.632 135.343 262.881 124.408 254.701 111.847" fill="#43A8F5"/>
<path d="M142.32 227.365C136.286 217.37 141.812 204.474 146.784 194.233C163.361 160.091 183.94 142.56 223.75 141.057C238.763 140.491 257.385 142.185 269.814 150.328C272.997 149.604 274.988 151.367 274.304 154.584L275.621 155.545C277.517 160.569 279.87 165.342 282.68 169.864C283.022 172.598 283.62 173.475 284.475 172.49C288.306 180.731 292.675 189.046 295.813 197.696C295.3 198.228 287.391 191.854 286.23 191.154C268.316 180.391 245.103 177.79 224.594 180.874C218.566 181.78 204.79 184.785 200.541 188.799C186.363 191.637 174.774 200.824 162.732 208.08C162.044 206.602 161.149 207.178 160.048 209.804C158.705 210.203 158.338 210.616 158.952 211.045C153.411 216.419 147.267 221.419 142.315 227.36L142.32 227.365Z" fill="#017991"/>
<path d="M273.449 153.835C272.871 153.712 268.532 150.446 267.657 150.032C245.323 139.555 207.892 139.895 186.142 151.333C163.868 163.042 152.476 182.529 144.034 204.952C142.702 208.488 140.293 216.828 140.781 220.291C141.068 222.35 144.738 223.626 142.324 227.369C136.663 234.162 127.317 250.275 127.905 259.403C127.93 259.797 127.905 260.186 127.814 260.57L127.211 262.954C123.807 239.157 122.269 215.927 128.181 192.366C140.494 143.284 186.101 113.413 237.173 128.058C245.675 130.496 257.611 137.023 264.841 141.708C265.193 141.934 266.692 142.88 271.302 146.904C271.88 147.412 273.363 149.293 273.741 149.958C274.595 151.466 275.586 152.727 276.154 153.963C278.984 160.106 281.614 166.357 284.47 172.5C285.249 174.475 287.557 178.982 287.31 178.706C287.084 178.45 282.268 171.125 282.021 170.071C281.936 169.711 279.935 165.81 279.839 165.559C278.778 162.648 278.361 162.165 276.667 159.076" fill="#006E83"/>
<path d="M248.934 207.72C250.523 200.484 265.571 201.833 265.571 208.464V228.483C265.571 228.561 266.626 229.596 266.707 229.596H287.125C289.744 229.596 293.404 233.931 293.601 236.65C293.797 239.438 290.81 245.906 287.884 245.906H266.712C266.632 245.906 265.576 246.94 265.576 247.019V267.038C265.576 269.777 259.804 272.762 256.873 272.663C253.941 272.565 248.944 270.028 248.944 267.038V247.019C248.944 246.94 247.888 245.906 247.808 245.906H226.636C226.414 245.906 223.312 244.088 222.895 243.645C220.316 240.935 220.255 235.177 222.578 232.29C223.141 231.591 226.153 229.596 226.636 229.596H247.808C247.888 229.596 248.944 228.561 248.944 228.483C248.944 223.296 248.004 212.001 248.944 207.72H248.934Z" fill="#0F57BF"/>
<path d="M360.877 146.949C360.329 132.585 359.881 118.738 355.155 105.039C348.473 85.6703 328.387 60.0111 305.642 62.7598C308.105 62.149 312.51 60.0899 314.717 59.7944C323.656 58.6023 338.126 65.7547 344.602 71.6363C355.035 81.1138 363.486 97.4334 366.513 110.95C371.098 131.427 365.522 152.599 360.399 172.485C360.399 172.485 360.681 170.8 360.736 169.909C360.867 167.795 361.209 163.914 360.932 161.761C360.852 161.15 360.867 160.8 360.837 160.628" fill="#2D9AEB"/>
<path d="M153.662 307.445C155.754 309.332 154.979 306.381 155.548 306.706C156.89 307.475 166.795 317.332 168.031 318.937C169.329 320.617 168.449 319.637 167.272 320.79C162.627 316.346 157.966 311.997 153.662 307.445Z" fill="#5AD5F4"/>
<path d="M251.498 110.137C250.819 107.581 247.265 104.734 246.249 102.768L251.498 110.137Z" fill="#229BAD"/>
<path d="M68.2203 173.982C67.9035 172.302 67.5315 171.578 67.4661 169.534C66.8778 168.288 66.8778 167.298 67.4661 166.569C68.0594 168.647 70.1107 172.12 68.2203 173.982Z" fill="#4BB5C0"/>
<path d="M67.4611 166.569C67.4812 167.554 67.4309 168.549 67.4611 169.534C65.993 167.46 66.2193 164.48 65.9478 162.121C67.074 163.263 67.0338 165.091 67.4611 166.569Z" fill="#6BCCCE"/>
<path d="M158.957 211.055C158.439 211.355 155.397 212.754 155.181 212.533C154.497 208.414 159.51 209.848 159.716 209.572C159.937 209.276 159.364 207.626 159.867 206.769C160.007 206.528 165.055 202.769 164.236 205.479C164.16 205.725 162.964 207.804 162.732 208.089C162.27 208.661 159.736 210.597 158.952 211.055H158.957Z" fill="#006E83"/>
<path d="M72.6414 420.496C58.9709 420.496 49.7549 430.255 49.7549 443.54C49.7549 456.825 58.9709 466.583 72.6414 466.583C80.8015 466.583 87.3678 462.224 90.9727 457.342L100.51 464.505C94.5776 472.913 84.8287 478.105 72.6464 478.105C52.1984 478.105 38 463.574 38 443.535C38 423.496 52.1984 408.965 72.6464 408.965C84.8287 408.965 94.5776 414.157 100.51 422.565L90.9727 429.417C87.3678 424.432 80.8015 420.491 72.6414 420.491V420.496Z" fill="black"/>
<path d="M110.254 415.098C110.254 411.152 113.431 408.975 116.609 408.975C119.787 408.975 123.07 411.152 123.07 415.098C123.07 419.043 119.787 421.427 116.609 421.427C113.431 421.427 110.254 419.038 110.254 415.098ZM110.892 477.278V429.526H122.441L122.336 477.278H110.892Z" fill="black"/>
<path d="M180.08 448.003V477.278H168.637V449.663C168.637 441.047 162.493 438.245 157.51 438.245C152.528 438.245 146.595 441.047 146.595 449.663V477.278H135.257V429.526H146.595V434.614C150.305 430.358 155.705 428.802 160.899 428.802C170.009 428.802 180.075 433.787 180.075 448.008L180.08 448.003Z" fill="black"/>
<path d="M206.355 438.038V462.534C206.355 467.933 209.744 468.554 212.926 468.554H216.637V477.273H208.371C199.366 477.273 194.917 472.603 194.917 464.298V438.033H188.456V429.521H194.917V414.886H206.36V429.521H217.17V438.033H206.36L206.355 438.038Z" fill="black"/>
<path d="M270.877 453.402V456.515H234.219C235.385 463.987 240.79 468.662 247.995 468.662C254.778 468.662 258.694 465.652 260.71 462.849L268.549 468.455C264.31 474.475 256.894 478.213 247.995 478.213C233.163 478.213 223.203 467.623 223.203 453.402C223.203 439.18 232.741 428.693 247.467 428.693C262.194 428.693 270.882 439.18 270.882 453.402H270.877ZM234.325 449.352H260.283C259.011 442.604 254.667 437.52 247.462 437.52C240.257 437.52 235.597 442.19 234.325 449.352Z" fill="black"/>
<path d="M329.681 429.526V473.854C329.681 487.558 320.249 497.42 303.829 497.42C295.141 497.42 287.725 493.991 283.275 488.804L290.797 482.681C294.613 486.73 299.485 487.977 303.829 487.977C309.867 487.977 318.344 484.553 318.344 473.859V471.056C314.849 475.416 309.761 478.115 302.873 478.115C289.313 478.115 279.564 467.633 279.564 453.407C279.564 439.18 289.313 428.802 302.873 428.802C309.761 428.802 314.844 431.501 318.344 435.757V429.531H329.681V429.526ZM318.344 453.402C318.344 445.2 312.833 439.284 304.462 439.284C296.091 439.284 290.686 445.2 290.686 453.402C290.686 461.603 296.091 467.623 304.462 467.623C312.833 467.623 318.344 461.603 318.344 453.402Z" fill="black"/>
<path d="M370.472 428.802V439.284C364.75 439.387 353.307 441.151 353.307 454.131V477.282H341.969V429.531H353.307V438.146C357.334 431.604 363.9 428.905 370.472 428.802Z" fill="black"/>
<path d="M423.077 453.402V456.515H386.415C387.581 463.987 392.986 468.662 400.191 468.662C406.973 468.662 410.895 465.652 412.906 462.849L420.744 468.455C416.506 474.475 409.09 478.213 400.191 478.213C385.359 478.213 375.399 467.623 375.399 453.402C375.399 439.18 384.937 428.693 399.663 428.693C414.389 428.693 423.077 439.18 423.077 453.402ZM386.525 449.352H412.484C411.212 442.604 406.868 437.52 399.663 437.52C392.458 437.52 387.797 442.19 386.525 449.352Z" fill="black"/>
<path d="M443.399 411.777C444.315 407.6 453.003 408.379 453.003 412.206V423.762C453.003 423.807 453.611 424.403 453.656 424.403H465.441C466.955 424.403 469.066 426.905 469.177 428.476C469.293 430.087 467.568 433.821 465.879 433.821H453.656C453.611 433.821 453.003 434.417 453.003 434.461V446.018C453.003 447.599 449.669 449.323 447.98 449.264C446.316 449.21 443.404 447.742 443.404 446.018V434.461C443.404 434.417 442.796 433.821 442.751 433.821H430.528C430.403 433.821 428.613 432.772 428.366 432.516C426.878 430.954 426.843 427.629 428.185 425.959C428.512 425.555 430.247 424.403 430.528 424.403H442.751C442.796 424.403 443.404 423.807 443.404 423.762C443.404 420.767 442.861 414.25 443.404 411.777H443.399Z" fill="#0F57BF"/>
</g>
<defs>
<filter id="filter0_i_2203_2747" x="0" y="0" width="543" height="536" filterUnits="userSpaceOnUse" color-interpolation-filters="sRGB">
<feFlood flood-opacity="0" result="BackgroundImageFix"/>
<feBlend mode="normal" in="SourceGraphic" in2="BackgroundImageFix" result="shape"/>
<feColorMatrix in="SourceAlpha" type="matrix" values="0 0 0 0 0 0 0 0 0 0 0 0 0 0 0 0 0 0 127 0" result="hardAlpha"/>
<feOffset dy="4"/>
<feGaussianBlur stdDeviation="4"/>
<feComposite in2="hardAlpha" operator="arithmetic" k2="-1" k3="1"/>
<feColorMatrix type="matrix" values="0 0 0 0 0.170858 0 0 0 0 0.287136 0 0 0 0 0.370192 0 0 0 0.51 0"/>
<feBlend mode="normal" in2="shape" result="effect1_innerShadow_2203_2747"/>
</filter>
<linearGradient id="paint0_linear_2203_2747" x1="77.2705" y1="103.113" x2="206.511" y2="208.338" gradientUnits="userSpaceOnUse">
<stop stop-color="#76D0CF"/>
<stop offset="1" stop-color="#1791A4"/>
</linearGradient>
<linearGradient id="paint1_linear_2203_2747" x1="388.51" y1="65.0257" x2="326.814" y2="310.546" gradientUnits="userSpaceOnUse">
<stop stop-color="#A4BDF6"/>
<stop offset="1" stop-color="#5BA3FB"/>
</linearGradient>
<linearGradient id="paint2_linear_2203_2747" x1="134.104" y1="241.394" x2="302.884" y2="330.034" gradientUnits="userSpaceOnUse">
<stop stop-color="#47E1EA"/>
<stop offset="0.47" stop-color="#5ABCF5"/>
<stop offset="1" stop-color="#57B5FB"/>
</linearGradient>
</defs>
</svg>
