<svg width="92" height="81" viewBox="0 0 92 81" fill="none" xmlns="http://www.w3.org/2000/svg">
<path d="M46.7385 13.8587L47.4258 14.2476C48.898 16.7977 50.1786 19.4381 51.2652 22.17L51.1997 22.9201C51.0513 23.0441 50.8758 23.1645 50.6929 23.1356C42.1698 14.7617 27.6417 15.3577 20.0396 25.1295C14.3176 32.4836 14.6328 41.3836 15.3535 50.1802C15.3535 50.1886 15.4214 50.1537 15.5067 50.1055L15.906 50.2765C16.4289 52.776 17.1705 55.3237 18.6737 57.4283C18.8282 57.7173 18.8059 57.9364 18.4821 58.0797C14.084 53.2287 10.0023 47.9648 6.62027 42.3685C4.23456 38.4206 1.68568 33.6045 0.821635 29.0823C0.861191 28.479 0.798149 27.8746 0.636217 27.2702C0.463161 27.0174 0.339547 26.655 0.264144 26.183C-0.494833 19.6079 0.677008 13.5999 4.91566 8.33591C14.2409 -3.24549 31.936 -2.12214 42.1006 7.77966C42.7236 8.38648 43.7731 10.0926 44.694 11.1413" fill="url(#paint0_linear_2109_483)"/>
<path d="M61.425 1.17222C65.1037 -0.0113266 69.1409 -0.0956069 72.9543 0.534092C83.8074 2.32446 91.3564 11.1607 91.9201 21.7343C92.4875 32.3971 85.3983 43.4836 78.8939 51.6408C76.9977 54.0175 71.5414 60.8672 69.2917 62.2156C63.545 65.6615 56.3013 61.291 56.7686 54.7183C57.0393 50.9039 59.9145 48.9197 62.163 46.2035C64.859 42.9466 67.6452 39.4995 69.754 35.843C71.5254 32.7727 73.1187 29.4448 72.764 25.8196C73.0396 25.5631 73.2114 25.6715 73.2918 26.0158C76.1732 16.828 73.0371 2.67362 61.7205 1.50693L61.4226 1.17101L61.425 1.17222Z" fill="url(#paint1_linear_2109_483)"/>
<path d="M33.3539 32.7064C27.685 38.0246 30.831 46.4334 35.2229 51.4108C40.3429 57.2141 46.4568 59.7088 52.3765 64.0902C58.4891 68.6137 56.855 78.353 49.1639 80.1072C45.1082 81.0319 42.542 79.504 39.4418 77.2838C34.4268 73.6898 29.5664 69.1411 25.1733 64.9655C24.4884 63.7086 23.0558 62.4287 21.8271 61.7039C21.1707 61.014 18.6663 58.9142 18.4809 58.0798C18.2572 57.0744 18.0062 57.2213 17.4784 56.2473C16.7454 54.894 15.6823 51.5998 15.5068 50.1056C14.5525 48.5645 17.408 42.9297 18.5835 42.1074L19.0384 42.1315C19.2967 41.391 19.5823 41.0527 20.073 40.4892C20.9284 39.5067 21.9902 38.6579 23.1287 38.145C23.3549 37.4948 23.6652 37.2528 24.0583 37.4202C24.3278 37.2203 24.4946 36.9759 24.5577 36.6869C27.0806 34.8412 29.8 33.4385 32.7161 32.4789L33.3527 32.7076L33.3539 32.7064Z" fill="url(#paint2_linear_2109_483)"/>
<path d="M44.2964 10.6586C46.043 9.22458 56.911 2.16064 59.1002 1.89816C62.3277 0.85549 65.4884 3.20693 67.57 5.43676C70.5602 8.64063 72.0263 12.2731 72.648 16.5666C72.8236 17.7803 72.8915 22.3435 72.7964 23.2333C72.7469 23.7028 72.9533 24.5408 72.7172 24.1772C71.0213 20.6735 65.8012 18.1608 62.0322 18.9843C58.5377 19.7489 54.482 22.3652 52.1779 23.7751C51.8911 23.9509 51.7737 24.0532 51.791 24.1266C51.7984 24.1616 51.7625 24.1905 51.7267 24.1905H51.4659C51.4449 24.1905 51.4251 24.1808 51.414 24.1628C51.299 23.9834 50.8268 23.0575 51.0431 22.9347C51.0728 22.9178 51.0901 22.8853 51.0765 22.854C49.603 19.6381 48.6809 16.9652 46.6697 13.8949" fill="#43A8F5"/>
<path d="M19.0396 42.1302C17.5562 39.6872 18.9147 36.5351 20.1372 34.032C24.2127 25.687 29.2722 21.4019 39.0598 21.0347C42.7508 20.8962 47.3294 21.3104 50.3851 23.3006C51.1675 23.1236 51.6571 23.5547 51.4889 24.3409L51.8128 24.5757C52.2788 25.8038 52.8573 26.9705 53.5483 28.0757C53.6324 28.744 53.7795 28.9583 53.9896 28.7175C54.9315 30.7318 56.0057 32.7642 56.7771 34.8784C56.651 35.0084 54.7066 33.4504 54.421 33.2795C50.0167 30.6487 44.3096 30.013 39.2674 30.7667C37.7853 30.9882 34.3983 31.7227 33.3538 32.704C29.868 33.3975 27.0187 35.643 24.0582 37.4165C23.8889 37.0553 23.6688 37.1961 23.3981 37.8379C23.0681 37.9354 22.9778 38.0365 23.1286 38.1413C21.7664 39.4549 20.2559 40.6769 19.0383 42.129L19.0396 42.1302Z" fill="#017991"/>
<path d="M51.2787 24.1578C51.1366 24.1277 50.0698 23.3294 49.8547 23.2283C44.3638 20.6674 35.1609 20.7504 29.8135 23.5462C24.3375 26.4081 21.5364 31.1712 19.461 36.6518C19.1334 37.5163 18.5413 39.5547 18.6612 40.4011C18.7317 40.9044 19.634 41.2162 19.0407 42.1313C17.6488 43.7916 15.3509 47.73 15.4955 49.961C15.5017 50.0573 15.4955 50.1524 15.4733 50.2463L15.3249 50.8291C14.4881 45.0125 14.1098 39.3344 15.5635 33.5756C18.5908 21.5788 29.8036 14.2777 42.3601 17.8572C44.4504 18.4532 47.3849 20.0485 49.1625 21.1935C49.249 21.2489 49.6174 21.4801 50.7509 22.4637C50.893 22.5878 51.2577 23.0477 51.3504 23.2102C51.5605 23.5787 51.8041 23.8869 51.9437 24.1891C52.6397 25.6905 53.2862 27.2184 53.9883 28.7198C54.1799 29.2026 54.7473 30.3043 54.6867 30.2369C54.6311 30.1742 53.4469 28.3839 53.3863 28.1262C53.3653 28.0383 52.8733 27.0847 52.8498 27.0233C52.589 26.3118 52.4864 26.1938 52.0698 25.4389" fill="#006E83"/>
<path d="M45.2518 37.3285C45.6424 35.5598 49.3421 35.8897 49.3421 37.5103V42.4034C49.3421 42.4226 49.6017 42.6755 49.6215 42.6755H54.6414C55.2854 42.6755 56.1853 43.735 56.2335 44.3996C56.2817 45.0811 55.5475 46.662 54.828 46.662H49.6227C49.603 46.662 49.3434 46.9148 49.3434 46.9341V51.8272C49.3434 52.4966 47.9243 53.2262 47.2037 53.2022C46.483 53.1781 45.2543 52.558 45.2543 51.8272V46.9341C45.2543 46.9148 44.9947 46.662 44.9749 46.662H39.7696C39.7152 46.662 38.9526 46.2177 38.85 46.1093C38.2158 45.4471 38.201 44.0396 38.7721 43.3341C38.9105 43.1631 39.651 42.6755 39.7696 42.6755H44.9749C44.9947 42.6755 45.2543 42.4226 45.2543 42.4034C45.2543 41.1355 45.0231 38.3747 45.2543 37.3285H45.2518Z" fill="white"/>
<path d="M72.7739 22.4744C72.6391 18.9635 72.5291 15.579 71.3672 12.2306C69.7244 7.49646 64.7861 1.22476 59.1938 1.8966C59.7995 1.7473 60.8824 1.24402 61.425 1.17178C63.6229 0.88041 67.1804 2.62864 68.7725 4.06623C71.3375 6.38275 73.4154 10.3716 74.1595 13.6755C75.2869 18.6805 73.916 23.8554 72.6564 28.716C72.6564 28.716 72.7256 28.3042 72.7392 28.0863C72.7714 27.5698 72.8554 26.621 72.7875 26.0948C72.7677 25.9455 72.7714 25.8601 72.764 25.8179" fill="#2D9AEB"/>
<path d="M21.8281 61.7039C22.3424 62.1651 22.152 61.4439 22.2917 61.5233C22.6217 61.7112 25.0569 64.1204 25.361 64.5129C25.6799 64.9235 25.4636 64.6839 25.1743 64.9656C24.0321 63.8796 22.8862 62.8164 21.8281 61.7039Z" fill="#5AD5F4"/>
<path d="M45.8831 13.4773C45.7161 12.8524 44.8417 12.1565 44.5918 11.6761L45.8831 13.4773Z" fill="#229BAD"/>
<path d="M0.822393 29.082C0.744468 28.6714 0.652938 28.4944 0.636858 27.9948C0.492141 27.6902 0.492141 27.4482 0.636858 27.27C0.782812 27.7781 1.28747 28.6269 0.822393 29.082Z" fill="#4BB5C0"/>
<path d="M0.63549 27.2701C0.640437 27.5109 0.628068 27.7542 0.63549 27.995C0.274315 27.4881 0.329976 26.7596 0.263184 26.1829C0.540249 26.4623 0.530353 26.9089 0.63549 27.2701Z" fill="#6BCCCE"/>
<path d="M23.1307 38.1433C23.0033 38.2168 22.255 38.5587 22.2018 38.5045C22.0336 37.498 23.2668 37.8484 23.3175 37.7809C23.3719 37.7087 23.2309 37.3054 23.3546 37.0959C23.3892 37.0369 24.6311 36.1182 24.4294 36.7804C24.4109 36.8406 24.1165 37.3487 24.0596 37.4185C23.9458 37.5582 23.3224 38.0314 23.1295 38.1433H23.1307Z" fill="#006E83"/>
<defs>
<linearGradient id="paint0_linear_2109_483" x1="3.04665" y1="11.7601" x2="34.6731" y2="37.6609" gradientUnits="userSpaceOnUse">
<stop stop-color="#76D0CF"/>
<stop offset="1" stop-color="#1791A4"/>
</linearGradient>
<linearGradient id="paint1_linear_2109_483" x1="79.5676" y1="2.45088" x2="64.5653" y2="62.5032" gradientUnits="userSpaceOnUse">
<stop stop-color="#A4BDF6"/>
<stop offset="1" stop-color="#5BA3FB"/>
</linearGradient>
<linearGradient id="paint2_linear_2109_483" x1="17.0198" y1="45.5593" x2="58.4103" y2="67.4244" gradientUnits="userSpaceOnUse">
<stop stop-color="#47E1EA"/>
<stop offset="0.47" stop-color="#5ABCF5"/>
<stop offset="1" stop-color="#57B5FB"/>
</linearGradient>
</defs>
</svg>