<svg width="374" height="329" viewBox="0 0 374 329" fill="none" xmlns="http://www.w3.org/2000/svg">
<path d="M189.907 56.6988L192.703 58.2899C198.691 68.723 203.899 79.5256 208.319 90.7025L208.052 93.7714C207.449 94.2787 206.735 94.7713 205.991 94.6531C171.324 60.3933 112.233 62.8316 81.3121 102.81C58.0386 132.898 59.3206 169.31 62.2518 205.299C62.2518 205.334 62.5284 205.191 62.8753 204.994L64.4993 205.693C66.626 215.92 69.6427 226.343 75.7564 234.953C76.3849 236.136 76.2944 237.032 74.9771 237.618C57.0883 217.772 40.4866 196.236 26.7306 173.34C17.027 157.188 6.65971 137.484 3.14529 118.982C3.30618 116.514 3.04976 114.042 2.39113 111.569C1.68724 110.534 1.18445 109.052 0.87776 107.121C-2.2093 80.2201 2.55704 55.6398 19.7973 34.1036C57.7268 -13.2789 129.699 -8.68298 171.043 31.8278C173.577 34.3105 177.845 41.2905 181.591 45.581" fill="url(#paint0_linear_2515_2718)"/>
<path d="M249.642 4.79401C264.605 -0.0481722 281.025 -0.392985 296.536 2.18327C340.68 9.50813 371.385 45.6595 373.677 88.919C375.985 132.543 347.151 177.901 320.695 211.274C312.982 220.998 290.789 249.021 281.639 254.538C258.265 268.636 228.802 250.755 230.702 223.865C231.804 208.259 243.498 200.141 252.644 189.029C263.609 175.704 274.942 161.601 283.519 146.641C290.724 134.08 297.205 120.465 295.762 105.633C296.883 104.583 297.582 105.027 297.909 106.436C309.629 68.8458 296.873 10.9366 250.844 6.16342L249.632 4.78909L249.642 4.79401Z" fill="url(#paint1_linear_2515_2718)"/>
<path d="M135.466 133.809C112.409 155.567 125.205 189.969 143.068 210.333C163.893 234.076 188.761 244.283 212.839 262.208C237.701 280.715 231.055 320.561 199.772 327.738C183.276 331.521 172.838 325.27 160.228 316.186C139.83 301.483 120.061 282.872 102.193 265.789C99.4072 260.647 93.58 255.41 88.5824 252.445C85.9126 249.622 75.7263 241.032 74.9722 237.618C74.0621 233.505 73.0415 234.106 70.8946 230.121C67.9132 224.584 63.5893 211.107 62.8753 204.993C58.9939 198.688 70.6081 175.635 75.3895 172.271L77.2397 172.369C78.2905 169.34 79.4519 167.955 81.4479 165.65C84.9272 161.631 89.246 158.158 93.8766 156.059C94.7967 153.399 96.0587 152.409 97.6575 153.094C98.7536 152.276 99.4323 151.276 99.6887 150.094C109.95 142.543 121.012 136.804 132.872 132.878L135.461 133.814L135.466 133.809Z" fill="url(#paint2_linear_2515_2718)"/>
<path d="M179.972 43.6061C187.076 37.7393 231.281 8.83893 240.185 7.76508C253.312 3.49923 266.168 13.1196 274.635 22.2424C286.797 35.3503 292.76 50.2118 295.289 67.7776C296.003 72.743 296.28 91.4122 295.893 95.0525C295.692 96.9736 296.531 100.402 295.571 98.9144C288.673 84.58 267.44 74.2996 252.111 77.6689C237.897 80.7969 221.401 91.5009 212.029 97.2692C210.863 97.9883 210.385 98.407 210.456 98.7075C210.486 98.8504 210.34 98.9686 210.194 98.9686H209.133C209.048 98.9686 208.967 98.9292 208.922 98.8553C208.455 98.1213 206.534 94.3333 207.414 93.8309C207.534 93.7619 207.605 93.6289 207.55 93.5008C201.556 80.3437 197.806 69.4081 189.626 56.847" fill="#43A8F5"/>
<path d="M77.2447 172.365C71.2114 162.37 76.7369 149.474 81.7094 139.233C98.286 105.091 118.865 87.5598 158.675 86.0574C173.688 85.4909 192.31 87.1854 204.739 95.328C207.922 94.6039 209.913 96.3674 209.229 99.584L210.546 100.545C212.442 105.569 214.795 110.342 217.605 114.864C217.947 117.598 218.545 118.475 219.4 117.49C223.231 125.731 227.6 134.046 230.738 142.696C230.225 143.228 222.316 136.854 221.155 136.154C203.241 125.391 180.028 122.79 159.519 125.874C153.491 126.78 139.715 129.785 135.466 133.799C121.288 136.637 109.699 145.824 97.6575 153.08C96.9687 151.602 96.0737 152.178 94.9727 154.804C93.6302 155.203 93.2632 155.616 93.8766 156.045C88.336 161.419 82.192 166.419 77.2397 172.36L77.2447 172.365Z" fill="#017991"/>
<path d="M208.374 98.8354C207.796 98.7122 203.457 95.4463 202.582 95.0325C180.249 84.5551 142.817 84.895 121.067 96.333C98.7938 108.042 87.4008 127.529 78.9592 149.952C77.6268 153.489 75.2185 161.828 75.7062 165.291C75.9928 167.35 79.6631 168.626 77.2497 172.37C71.5885 179.162 62.2418 195.275 62.8301 204.403C62.8552 204.797 62.8301 205.186 62.7396 205.57L62.1362 207.954C58.7324 184.157 57.1939 160.927 63.1066 137.366C75.4196 88.284 121.027 58.4132 172.099 73.058C180.601 75.4963 192.537 82.0232 199.767 86.7077C200.119 86.9343 201.617 87.8801 206.227 91.9046C206.806 92.4119 208.289 94.2937 208.666 94.9587C209.521 96.466 210.511 97.727 211.079 98.9634C213.91 105.106 216.539 111.357 219.395 117.5C220.174 119.475 222.482 123.982 222.236 123.706C222.01 123.45 217.193 116.125 216.947 115.071C216.861 114.712 214.86 110.81 214.764 110.559C213.704 107.648 213.286 107.165 211.592 104.077" fill="#006E83"/>
<path d="M183.859 152.72C185.448 145.484 200.496 146.833 200.496 153.464V173.483C200.496 173.561 201.552 174.596 201.632 174.596H222.05C224.669 174.596 228.33 178.931 228.526 181.65C228.722 184.438 225.735 190.906 222.809 190.906H201.637C201.557 190.906 200.501 191.94 200.501 192.019V212.038C200.501 214.777 194.729 217.762 191.798 217.663C188.866 217.565 183.869 215.028 183.869 212.038V192.019C183.869 191.94 182.813 190.906 182.733 190.906H161.561C161.339 190.906 158.237 189.088 157.82 188.645C155.241 185.935 155.18 180.177 157.503 177.29C158.066 176.591 161.078 174.596 161.561 174.596H182.733C182.813 174.596 183.869 173.561 183.869 173.483C183.869 168.296 182.929 157 183.869 152.72H183.859Z" fill="#0F57BF"/>
<defs>
<linearGradient id="paint0_linear_2515_2718" x1="12.1953" y1="48.1129" x2="141.436" y2="153.338" gradientUnits="userSpaceOnUse">
<stop stop-color="#76D0CF"/>
<stop offset="1" stop-color="#1791A4"/>
</linearGradient>
<linearGradient id="paint1_linear_2515_2718" x1="323.435" y1="10.0254" x2="261.739" y2="255.545" gradientUnits="userSpaceOnUse">
<stop stop-color="#A4BDF6"/>
<stop offset="1" stop-color="#5BA3FB"/>
</linearGradient>
<linearGradient id="paint2_linear_2515_2718" x1="69.0293" y1="186.393" x2="237.809" y2="275.033" gradientUnits="userSpaceOnUse">
<stop stop-color="#47E1EA"/>
<stop offset="0.47" stop-color="#5ABCF5"/>
<stop offset="1" stop-color="#57B5FB"/>
</linearGradient>
</defs>
</svg>
