<svg width="178" height="143" viewBox="0 0 178 143" fill="none" xmlns="http://www.w3.org/2000/svg">
<path d="M89.7383 21.8588L90.4256 22.2477C91.8978 24.7978 93.1784 27.4382 94.265 30.1701L94.1994 30.9202C94.0511 31.0442 93.8756 31.1646 93.6926 31.1357C85.1696 22.7618 70.6415 23.3578 63.0393 33.1295C57.3173 40.4837 57.6326 49.3837 58.3532 58.1802C58.3532 58.1887 58.4212 58.1537 58.5065 58.1056L58.9058 58.2765C59.4286 60.7761 60.1703 63.3238 61.6734 65.4284C61.8279 65.7173 61.8057 65.9365 61.4818 66.0798C57.0837 61.2288 53.0021 55.9648 49.62 50.3686C47.2343 46.4206 44.6854 41.6046 43.8214 37.0823C43.8609 36.4791 43.7979 35.8747 43.636 35.2703C43.4629 35.0174 43.3393 34.655 43.2639 34.1831C42.5049 27.6079 43.6768 21.5999 47.9154 16.336C57.2407 4.75457 74.9358 5.87792 85.1004 15.7797C85.7234 16.3865 86.7728 18.0926 87.6937 19.1413" fill="url(#paint0_linear_2088_3451)"/>
<path d="M104.425 9.17216C108.103 7.98861 112.141 7.90433 115.954 8.53403C126.807 10.3244 134.356 19.1606 134.92 29.7343C135.487 40.397 128.398 51.4836 121.894 59.6407C119.997 62.0175 114.541 68.8671 112.291 70.2156C106.545 73.6615 99.3011 69.2909 99.7683 62.7182C100.039 58.9039 102.914 56.9197 105.163 54.2034C107.859 50.9466 110.645 47.4995 112.754 43.8429C114.525 40.7727 116.118 37.4448 115.764 33.8195C116.039 33.563 116.211 33.6714 116.292 34.0157C119.173 24.8279 116.037 10.6736 104.72 9.50687L104.422 9.17095L104.425 9.17216Z" fill="url(#paint1_linear_2088_3451)"/>
<path d="M76.3538 40.7066C70.6849 46.0247 73.8308 54.4335 78.2228 59.4109C83.3428 65.2142 89.4566 67.7089 95.3764 72.0904C101.489 76.6138 99.8549 86.3531 92.1637 88.1073C88.108 89.032 85.5418 87.5041 82.4417 85.2839C77.4267 81.6899 72.5663 77.1412 68.1731 72.9657C67.4883 71.7087 66.0557 70.4288 64.827 69.704C64.1706 69.0141 61.6662 66.9143 61.4808 66.0799C61.257 65.0746 61.0061 65.2215 60.4783 64.2474C59.7453 62.8941 58.6822 59.5999 58.5067 58.1057C57.5524 56.5646 60.4078 50.9298 61.5834 50.1075L62.0383 50.1316C62.2966 49.3911 62.5822 49.0528 63.0729 48.4893C63.9283 47.5068 64.9901 46.658 66.1286 46.1451C66.3548 45.4949 66.6651 45.2529 67.0582 45.4203C67.3276 45.2204 67.4945 44.976 67.5575 44.687C70.0805 42.8413 72.7999 41.4386 75.7159 40.479L76.3525 40.7078L76.3538 40.7066Z" fill="url(#paint2_linear_2088_3451)"/>
<path d="M87.2961 18.6587C89.0428 17.2248 99.9107 10.1608 102.1 9.89835C105.327 8.85567 108.488 11.2071 110.57 13.4369C113.56 16.6408 115.026 20.2733 115.648 24.5668C115.823 25.7805 115.891 30.3437 115.796 31.2334C115.747 31.703 115.953 32.541 115.717 32.1774C114.021 28.6737 108.801 26.1609 105.032 26.9845C101.537 27.749 97.4818 30.3654 95.1776 31.7753C94.8909 31.951 94.7734 32.0534 94.7907 32.1268C94.7982 32.1617 94.7623 32.1906 94.7265 32.1906H94.4656C94.4446 32.1906 94.4248 32.181 94.4137 32.1629C94.2988 31.9835 93.8266 31.0577 94.0429 30.9349C94.0725 30.918 94.0899 30.8855 94.0763 30.8542C92.6028 27.6383 91.6807 24.9654 89.6695 21.8951" fill="#43A8F5"/>
<path d="M62.0396 50.1303C60.5562 47.6873 61.9147 44.5352 63.1372 42.0321C67.2127 33.6871 72.2722 29.402 82.0598 29.0348C85.7508 28.8963 90.3294 29.3105 93.3851 31.3007C94.1675 31.1238 94.6571 31.5548 94.4889 32.341L94.8128 32.5758C95.2788 33.8039 95.8573 34.9706 96.5483 36.0759C96.6324 36.7441 96.7795 36.9584 96.9896 36.7176C97.9315 38.7319 99.0057 40.7643 99.7771 42.8785C99.651 43.0086 97.7066 41.4506 97.421 41.2796C93.0167 38.6488 87.3096 38.0131 82.2674 38.7668C80.7853 38.9884 77.3983 39.7228 76.3538 40.7041C72.868 41.3976 70.0187 43.6431 67.0582 45.4166C66.8889 45.0554 66.6688 45.1962 66.3981 45.838C66.0681 45.9355 65.9778 46.0366 66.1286 46.1414C64.7664 47.455 63.2559 48.677 62.0383 50.1291L62.0396 50.1303Z" fill="#017991"/>
<path d="M94.2786 32.1578C94.1364 32.1277 93.0697 31.3294 92.8546 31.2283C87.3637 28.6674 78.1608 28.7504 72.8134 31.5462C67.3374 34.4081 64.5363 39.1712 62.4609 44.6518C62.1333 45.5163 61.5412 47.5547 61.6611 48.4011C61.7316 48.9044 62.6339 49.2162 62.0406 50.1313C60.6487 51.7916 58.3508 55.73 58.4954 57.961C58.5016 58.0573 58.4954 58.1524 58.4731 58.2463L58.3248 58.8291C57.488 53.0125 57.1097 47.3344 58.5634 41.5756C61.5906 29.5788 72.8035 22.2777 85.36 25.8572C87.4503 26.4532 90.3848 28.0485 92.1623 29.1935C92.2489 29.2489 92.6172 29.4801 93.7508 30.4637C93.8929 30.5878 94.2576 31.0477 94.3503 31.2102C94.5604 31.5787 94.8039 31.8869 94.9436 32.1891C95.6395 33.6905 96.286 35.2184 96.9882 36.7198C97.1798 37.2026 97.7471 38.3043 97.6866 38.2369C97.6309 38.1742 96.4467 36.3839 96.3862 36.1262C96.3652 36.0383 95.8732 35.0847 95.8497 35.0233C95.5889 34.3118 95.4863 34.1938 95.0697 33.4389" fill="#006E83"/>
<path d="M88.2517 45.3284C88.6423 43.5597 92.342 43.8896 92.342 45.5102V50.4033C92.342 50.4226 92.6016 50.6754 92.6214 50.6754H97.6413C98.2853 50.6754 99.1852 51.7349 99.2334 52.3996C99.2816 53.081 98.5473 54.6619 97.8279 54.6619H92.6226C92.6028 54.6619 92.3433 54.9147 92.3433 54.934V59.8271C92.3433 60.4965 90.9242 61.2262 90.2035 61.2021C89.4829 61.178 88.2542 60.558 88.2542 59.8271V54.934C88.2542 54.9147 87.9946 54.6619 87.9748 54.6619H82.7695C82.7151 54.6619 81.9524 54.2176 81.8498 54.1093C81.2157 53.4471 81.2009 52.0396 81.772 51.334C81.9104 51.163 82.6508 50.6754 82.7695 50.6754H87.9748C87.9946 50.6754 88.2542 50.4226 88.2542 50.4033C88.2542 49.1355 88.023 46.3747 88.2542 45.3284H88.2517Z" fill="white"/>
<path d="M115.773 30.4744C115.639 26.9635 115.529 23.579 114.367 20.2306C112.724 15.4965 107.786 9.22476 102.193 9.8966C102.799 9.7473 103.882 9.24402 104.425 9.17178C106.622 8.88041 110.18 10.6286 111.772 12.0662C114.337 14.3827 116.415 18.3716 117.159 21.6755C118.286 26.6805 116.916 31.8554 115.656 36.716C115.656 36.716 115.725 36.3042 115.739 36.0863C115.771 35.5698 115.855 34.621 115.787 34.0948C115.767 33.9455 115.771 33.8601 115.763 33.8179" fill="#2D9AEB"/>
<path d="M64.8279 69.7039C65.3421 70.165 65.1517 69.4438 65.2914 69.5233C65.6215 69.7111 68.0566 72.1203 68.3607 72.5128C68.6796 72.9234 68.4633 72.6838 68.1741 72.9655C67.0319 71.8795 65.886 70.8164 64.8279 69.7039Z" fill="#5AD5F4"/>
<path d="M88.8826 21.4775C88.7156 20.8526 87.8412 20.1567 87.5913 19.6763L88.8826 21.4775Z" fill="#229BAD"/>
<path d="M43.8223 37.0821C43.7443 36.6715 43.6528 36.4945 43.6367 35.9948C43.492 35.6902 43.492 35.4482 43.6367 35.27C43.7827 35.7781 44.2873 36.6269 43.8223 37.0821Z" fill="#4BB5C0"/>
<path d="M43.6355 35.2703C43.6404 35.5111 43.6281 35.7543 43.6355 35.9951C43.2743 35.4883 43.33 34.7598 43.2632 34.1831C43.5402 34.4624 43.5304 34.9091 43.6355 35.2703Z" fill="#6BCCCE"/>
<path d="M66.1302 46.1435C66.0028 46.217 65.2545 46.5589 65.2013 46.5047C65.0331 45.4982 66.2663 45.8485 66.317 45.7811C66.3714 45.7089 66.2304 45.3055 66.3541 45.096C66.3887 45.037 67.6306 44.1184 67.429 44.7806C67.4104 44.8408 67.116 45.3489 67.0591 45.4187C66.9453 45.5584 66.3219 46.0316 66.129 46.1435H66.1302Z" fill="#006E83"/>
<path d="M22.2741 106.634C17.2331 106.634 13.8347 110.232 13.8347 115.131C13.8347 120.03 17.2331 123.629 22.2741 123.629C25.2832 123.629 27.7045 122.021 29.0338 120.221L32.5509 122.862C30.3632 125.963 26.7682 127.877 22.276 127.877C14.7357 127.877 9.5 122.519 9.5 115.129C9.5 107.74 14.7357 102.382 22.276 102.382C26.7682 102.382 30.3632 104.296 32.5509 107.397L29.0338 109.923C27.7045 108.085 25.2832 106.632 22.2741 106.632V106.634Z" fill="white"/>
<path d="M36.1442 104.643C36.1442 103.188 37.3159 102.385 38.4876 102.385C39.6594 102.385 40.87 103.188 40.87 104.643C40.87 106.098 39.6594 106.977 38.4876 106.977C37.3159 106.977 36.1442 106.096 36.1442 104.643ZM36.3796 127.572V109.963H40.6383L40.5993 127.572H36.3796Z" fill="white"/>
<path d="M61.8926 116.777V127.572H57.6729V117.389C57.6729 114.212 55.4073 113.178 53.57 113.178C51.7327 113.178 49.5449 114.212 49.5449 117.389V127.572H45.3641V109.963H49.5449V111.84C50.9132 110.27 52.9044 109.696 54.8196 109.696C58.179 109.696 61.8908 111.535 61.8908 116.779L61.8926 116.777Z" fill="white"/>
<path d="M71.5814 113.102V122.135C71.5814 124.126 72.831 124.355 74.0045 124.355H75.3728V127.57H72.3248C69.0043 127.57 67.3635 125.848 67.3635 122.786V113.1H64.9811V109.962H67.3635V104.565H71.5832V109.962H75.5693V113.1H71.5832L71.5814 113.102Z" fill="white"/>
<path d="M95.374 118.768V119.916H81.8564C82.2866 122.671 84.2796 124.395 86.9364 124.395C89.4375 124.395 90.8818 123.285 91.6252 122.252L94.5156 124.319C92.9527 126.539 90.218 127.917 86.9364 127.917C81.4671 127.917 77.7943 124.012 77.7943 118.768C77.7943 113.524 81.3114 109.656 86.7418 109.656C92.1722 109.656 95.3759 113.524 95.3759 118.768H95.374ZM81.8954 117.275H91.4676C90.9986 114.786 89.3967 112.912 86.7399 112.912C84.0831 112.912 82.3644 114.634 81.8954 117.275Z" fill="white"/>
<path d="M117.058 109.963V126.31C117.058 131.363 113.58 134.999 107.525 134.999C104.321 134.999 101.587 133.735 99.9459 131.822L102.719 129.565C104.127 131.058 105.923 131.517 107.525 131.517C109.752 131.517 112.878 130.255 112.878 126.311V125.278C111.589 126.885 109.713 127.881 107.173 127.881C102.173 127.881 98.5776 124.015 98.5776 118.769C98.5776 113.524 102.173 109.696 107.173 109.696C109.713 109.696 111.587 110.692 112.878 112.261V109.965H117.058V109.963ZM112.878 118.768C112.878 115.743 110.846 113.562 107.759 113.562C104.672 113.562 102.679 115.743 102.679 118.768C102.679 121.792 104.672 124.012 107.759 124.012C110.846 124.012 112.878 121.792 112.878 118.768Z" fill="white"/>
<path d="M132.1 109.696V113.562C129.99 113.6 125.77 114.25 125.77 119.036V127.574H121.589V109.965H125.77V113.142C127.255 110.73 129.677 109.734 132.1 109.696Z" fill="white"/>
<path d="M151.499 118.768V119.916H137.979C138.409 122.671 140.402 124.395 143.059 124.395C145.56 124.395 147.006 123.285 147.748 122.252L150.638 124.319C149.075 126.539 146.341 127.917 143.059 127.917C137.59 127.917 133.917 124.012 133.917 118.768C133.917 113.524 137.434 109.656 142.864 109.656C148.295 109.656 151.499 113.524 151.499 118.768ZM138.02 117.275H147.592C147.123 114.786 145.521 112.912 142.864 112.912C140.208 112.912 138.489 114.634 138.02 117.275Z" fill="white"/>
<path d="M158.993 103.419C159.33 101.879 162.534 102.166 162.534 103.577V107.838C162.534 107.855 162.758 108.074 162.775 108.074H167.121C167.679 108.074 168.457 108.997 168.498 109.577C168.541 110.171 167.905 111.548 167.282 111.548H162.775C162.758 111.548 162.534 111.767 162.534 111.784V116.045C162.534 116.628 161.304 117.264 160.682 117.242C160.068 117.222 158.994 116.681 158.994 116.045V111.784C158.994 111.767 158.77 111.548 158.753 111.548H154.246C154.2 111.548 153.54 111.161 153.449 111.066C152.9 110.49 152.887 109.264 153.382 108.648C153.503 108.5 154.142 108.074 154.246 108.074H158.753C158.77 108.074 158.994 107.855 158.994 107.838C158.994 106.734 158.794 104.331 158.994 103.419H158.993Z" fill="white"/>
<defs>
<linearGradient id="paint0_linear_2088_3451" x1="46.0464" y1="19.7602" x2="77.6729" y2="45.661" gradientUnits="userSpaceOnUse">
<stop stop-color="#76D0CF"/>
<stop offset="1" stop-color="#1791A4"/>
</linearGradient>
<linearGradient id="paint1_linear_2088_3451" x1="122.567" y1="10.4508" x2="107.565" y2="70.5032" gradientUnits="userSpaceOnUse">
<stop stop-color="#A4BDF6"/>
<stop offset="1" stop-color="#5BA3FB"/>
</linearGradient>
<linearGradient id="paint2_linear_2088_3451" x1="60.0197" y1="53.5594" x2="101.41" y2="75.4245" gradientUnits="userSpaceOnUse">
<stop stop-color="#47E1EA"/>
<stop offset="0.47" stop-color="#5ABCF5"/>
<stop offset="1" stop-color="#57B5FB"/>
</linearGradient>
</defs>
</svg>
