<svg width="226" height="48" viewBox="0 0 226 48" fill="none" xmlns="http://www.w3.org/2000/svg">
<path d="M79.7741 13.0712C74.7331 13.0712 71.3347 16.6695 71.3347 21.5685C71.3347 26.4675 74.7331 30.0659 79.7741 30.0659C82.7832 30.0659 85.2045 28.4583 86.5338 26.6582L90.0509 29.2993C87.8632 32.4 84.2682 34.3146 79.776 34.3146C72.2357 34.3146 67 28.956 67 21.5667C67 14.1774 72.2357 8.81885 79.776 8.81885C84.2682 8.81885 87.8632 10.7334 90.0509 13.8341L86.5338 16.3607C85.2045 14.5225 82.7832 13.0693 79.7741 13.0693V13.0712Z" fill="black"/>
<path d="M93.6442 11.0804C93.6442 9.62538 94.8159 8.82251 95.9876 8.82251C97.1594 8.82251 98.37 9.62538 98.37 11.0804C98.37 12.5353 97.1594 13.4145 95.9876 13.4145C94.8159 13.4145 93.6442 12.5335 93.6442 11.0804ZM93.8796 34.0094V16.4008H98.1383L98.0993 34.0094H93.8796Z" fill="black"/>
<path d="M119.393 23.2143V34.0095H115.173V23.8265C115.173 20.6495 112.907 19.6159 111.07 19.6159C109.233 19.6159 107.045 20.6495 107.045 23.8265V34.0095H102.864V16.4008H107.045V18.2772C108.413 16.7078 110.404 16.1338 112.32 16.1338C115.679 16.1338 119.391 17.972 119.391 23.2161L119.393 23.2143Z" fill="black"/>
<path d="M129.081 19.5395V28.5727C129.081 30.5636 130.331 30.7924 131.505 30.7924H132.873V34.0076H129.825C126.504 34.0076 124.863 32.2856 124.863 29.223V19.5377H122.481V16.3989H124.863V11.0022H129.083V16.3989H133.069V19.5377H129.083L129.081 19.5395Z" fill="black"/>
<path d="M152.874 25.2051V26.3531H139.356C139.787 29.1086 141.78 30.8324 144.436 30.8324C146.937 30.8324 148.382 29.7226 149.125 28.689L152.016 30.7561C150.453 32.9758 147.718 34.3545 144.436 34.3545C138.967 34.3545 135.294 30.4492 135.294 25.2051C135.294 19.961 138.811 16.0938 144.242 16.0938C149.672 16.0938 152.876 19.961 152.876 25.2051H152.874ZM139.395 23.7119H148.968C148.499 21.2234 146.897 19.3488 144.24 19.3488C141.583 19.3488 139.864 21.0708 139.395 23.7119Z" fill="black"/>
<path d="M174.558 16.4008V32.7471C174.558 37.8004 171.08 41.437 165.025 41.437C161.821 41.437 159.087 40.1727 157.446 38.26L160.219 36.0021C161.627 37.4953 163.423 37.9548 165.025 37.9548C167.252 37.9548 170.378 36.6924 170.378 32.7489V31.7153C169.089 33.3229 167.213 34.3183 164.673 34.3183C159.673 34.3183 156.078 30.4529 156.078 25.207C156.078 19.9611 159.673 16.1338 164.673 16.1338C167.213 16.1338 169.087 17.1292 170.378 18.6986V16.4026H174.558V16.4008ZM170.378 25.2051C170.378 22.1808 168.346 19.9992 165.259 19.9992C162.172 19.9992 160.179 22.1808 160.179 25.2051C160.179 28.2295 162.172 30.4492 165.259 30.4492C168.346 30.4492 170.378 28.2295 170.378 25.2051Z" fill="black"/>
<path d="M189.6 16.1338V19.9992C187.49 20.0373 183.27 20.6876 183.27 25.474V34.0113H179.089V16.4026H183.27V19.5796C184.755 17.1674 187.177 16.1719 189.6 16.1338Z" fill="black"/>
<path d="M208.999 25.2051V26.3531H195.479C195.909 29.1086 197.902 30.8324 200.559 30.8324C203.06 30.8324 204.506 29.7226 205.248 28.689L208.138 30.7561C206.575 32.9758 203.841 34.3545 200.559 34.3545C195.09 34.3545 191.417 30.4492 191.417 25.2051C191.417 19.961 194.934 16.0938 200.364 16.0938C205.795 16.0938 208.999 19.961 208.999 25.2051ZM195.52 23.7119H205.092C204.623 21.2234 203.021 19.3488 200.364 19.3488C197.708 19.3488 195.989 21.0708 195.52 23.7119Z" fill="black"/>
<path d="M216.493 9.85592C216.83 8.31556 220.034 8.60256 220.034 10.0139V14.2753C220.034 14.2917 220.258 14.5115 220.275 14.5115H224.621C225.179 14.5115 225.957 15.4342 225.998 16.0137C226.041 16.6077 225.405 17.9845 224.782 17.9845H220.275C220.258 17.9845 220.034 18.2043 220.034 18.2207V22.4821C220.034 23.0651 218.804 23.7009 218.182 23.6791C217.568 23.6591 216.494 23.1178 216.494 22.4821V18.2207C216.494 18.2043 216.27 17.9845 216.253 17.9845H211.746C211.7 17.9845 211.04 17.5976 210.949 17.5032C210.4 16.9274 210.387 15.7013 210.882 15.0855C211.003 14.9365 211.642 14.5115 211.746 14.5115H216.253C216.27 14.5115 216.494 14.2917 216.494 14.2753C216.494 13.1709 216.294 10.7678 216.494 9.85592H216.493Z" fill="#013A52"/>
<path d="M26.9297 8.8121L27.3261 9.03641C28.1753 10.5072 28.9139 12.0302 29.5406 13.6059L29.5028 14.0385C29.4173 14.11 29.316 14.1795 29.2105 14.1628C24.2946 9.33294 15.9152 9.67669 11.5305 15.3128C8.23015 19.5545 8.41195 24.6878 8.82761 29.7614C8.82761 29.7663 8.86682 29.7461 8.91602 29.7184L9.1463 29.817C9.44789 31.2586 9.87566 32.7281 10.7426 33.942C10.8317 34.1086 10.8189 34.235 10.6321 34.3177C8.0954 31.5197 5.74119 28.4836 3.79053 25.2559C2.41451 22.9788 0.944379 20.201 0.446017 17.5927C0.468832 17.2447 0.432471 16.8961 0.339073 16.5475C0.239258 16.4017 0.167961 16.1927 0.124471 15.9204C-0.313289 12.1281 0.3626 8.6628 2.80735 5.62669C8.18594 -1.05317 18.392 -0.405256 24.2547 5.30585C24.614 5.65585 25.2193 6.63988 25.7505 7.24474" fill="url(#paint0_linear_2086_271)"/>
<path d="M35.4005 1.49484C37.5223 0.812198 39.8508 0.763587 42.0503 1.12678C48.3101 2.15942 52.6642 7.25595 52.9893 13.3546C53.3166 19.5046 49.2277 25.899 45.4761 30.6039C44.3824 31.9747 41.2354 35.9254 39.9378 36.7032C36.6233 38.6907 32.4453 36.1698 32.7148 32.3789C32.8709 30.1789 34.5293 29.0344 35.8262 27.4678C37.3811 25.5893 38.9882 23.6011 40.2045 21.4921C41.2261 19.7212 42.1452 17.8018 41.9405 15.7108C42.0995 15.5629 42.1986 15.6254 42.245 15.824C43.9069 10.5247 42.0981 2.36081 35.5709 1.68789L35.3991 1.49414L35.4005 1.49484Z" fill="url(#paint1_linear_2086_271)"/>
<path d="M19.2098 19.683C15.9402 22.7504 17.7547 27.6004 20.2878 30.4712C23.2409 33.8184 26.7672 35.2573 30.1816 37.7844C33.7072 40.3934 32.7647 46.0108 28.3286 47.0226C25.9894 47.5559 24.5093 46.6747 22.7212 45.3941C19.8287 43.3212 17.0253 40.6976 14.4914 38.2893C14.0965 37.5643 13.2701 36.8261 12.5615 36.408C12.1829 36.0101 10.7384 34.799 10.6315 34.3177C10.5024 33.7379 10.3577 33.8226 10.0533 33.2608C9.63047 32.4802 9.01732 30.5802 8.91608 29.7184C8.36567 28.8295 10.0126 25.5795 10.6906 25.1052L10.953 25.1191C11.102 24.692 11.2667 24.4969 11.5498 24.1719C12.0431 23.6052 12.6556 23.1156 13.3122 22.8198C13.4427 22.4448 13.6216 22.3052 13.8484 22.4018C14.0038 22.2865 14.1 22.1455 14.1364 21.9788C15.5916 20.9143 17.1601 20.1052 18.8419 19.5518L19.2091 19.6837L19.2098 19.683Z" fill="url(#paint2_linear_2086_271)"/>
<path d="M25.5211 6.96634C26.5285 6.13925 32.7969 2.06495 34.0596 1.91356C35.9211 1.31217 37.7442 2.66842 38.9448 3.95453C40.6694 5.80245 41.515 7.89759 41.8736 10.374C41.9749 11.074 42.0141 13.7059 41.9592 14.2191C41.9307 14.4899 42.0497 14.9733 41.9136 14.7636C40.9354 12.7427 37.9245 11.2934 35.7507 11.7684C33.7352 12.2094 31.3959 13.7184 30.067 14.5316C29.9016 14.633 29.8338 14.692 29.8438 14.7344C29.8481 14.7545 29.8274 14.7712 29.8067 14.7712H29.6563C29.6442 14.7712 29.6328 14.7656 29.6264 14.7552C29.5601 14.6518 29.2877 14.1177 29.4125 14.0469C29.4296 14.0372 29.4396 14.0184 29.4317 14.0004C28.5819 12.1455 28.05 10.6038 26.89 8.833" fill="#43A8F5"/>
<path d="M10.9538 25.1184C10.0982 23.7094 10.8818 21.8913 11.5869 20.4476C13.9375 15.6344 16.8557 13.1628 22.5009 12.951C24.6298 12.8712 27.2706 13.1101 29.0331 14.258C29.4844 14.1559 29.7667 14.4045 29.6698 14.858L29.8565 14.9934C30.1253 15.7017 30.459 16.3746 30.8575 17.0121C30.906 17.3976 30.9909 17.5212 31.1121 17.3823C31.6554 18.5441 32.2749 19.7163 32.7198 20.9357C32.6471 21.0107 31.5256 20.1121 31.3609 20.0135C28.8206 18.4962 25.5289 18.1295 22.6207 18.5642C21.7658 18.692 19.8123 19.1156 19.2099 19.6816C17.1993 20.0816 15.5559 21.3767 13.8484 22.3996C13.7507 22.1913 13.6238 22.2725 13.4677 22.6427C13.2773 22.6989 13.2253 22.7573 13.3122 22.8177C12.5266 23.5753 11.6553 24.2802 10.953 25.1177L10.9538 25.1184Z" fill="#017991"/>
<path d="M29.5485 14.7523C29.4665 14.735 28.8512 14.2746 28.7271 14.2162C25.5602 12.7391 20.2521 12.7871 17.1679 14.3996C14.0094 16.0503 12.3939 18.7975 11.1968 21.9586C11.0079 22.4572 10.6664 23.6329 10.7355 24.1211C10.7762 24.4114 11.2966 24.5912 10.9544 25.119C10.1516 26.0766 8.8262 28.3482 8.90962 29.635C8.91319 29.6905 8.90962 29.7454 8.89679 29.7996L8.81123 30.1357C8.32856 26.7808 8.11039 23.5058 8.94883 20.1843C10.6949 13.2648 17.1622 9.05373 24.4044 11.1183C25.6101 11.4621 27.3026 12.3822 28.3279 13.0426C28.3778 13.0746 28.5902 13.2079 29.244 13.7753C29.326 13.8468 29.5364 14.1121 29.5898 14.2058C29.711 14.4183 29.8515 14.5961 29.932 14.7704C30.3334 15.6364 30.7063 16.5176 31.1113 17.3836C31.2218 17.6621 31.549 18.2975 31.5141 18.2586C31.482 18.2225 30.799 17.1898 30.7641 17.0412C30.752 16.9905 30.4682 16.4405 30.4546 16.4051C30.3042 15.9947 30.245 15.9266 30.0048 15.4912" fill="#006E83"/>
<path d="M26.0723 22.3489C26.2976 21.3287 28.4315 21.519 28.4315 22.4537V25.2759C28.4315 25.2871 28.5812 25.4329 28.5926 25.4329H31.4879C31.8594 25.4329 32.3784 26.044 32.4062 26.4273C32.434 26.8204 32.0105 27.7322 31.5956 27.7322H28.5933C28.5819 27.7322 28.4322 27.878 28.4322 27.8891V30.7114C28.4322 31.0975 27.6137 31.5183 27.198 31.5044C26.7824 31.4905 26.0737 31.1329 26.0737 30.7114V27.8891C26.0737 27.878 25.924 27.7322 25.9126 27.7322H22.9103C22.8789 27.7322 22.439 27.4759 22.3798 27.4134C22.0141 27.0315 22.0055 26.2197 22.3349 25.8127C22.4148 25.7141 22.8418 25.4329 22.9103 25.4329H25.9126C25.924 25.4329 26.0737 25.2871 26.0737 25.2759C26.0737 24.5447 25.9404 22.9523 26.0737 22.3489H26.0723Z" fill="#013A52"/>
<path d="M41.9461 13.7814C41.8684 11.7564 41.805 9.80433 41.1348 7.87308C40.1873 5.14252 37.339 1.52516 34.1135 1.91266C34.4629 1.82655 35.0874 1.53627 35.4004 1.49461C36.6681 1.32655 38.72 2.33489 39.6383 3.16405C41.1177 4.50016 42.3162 6.80086 42.7454 8.70641C43.3956 11.5932 42.6049 14.5779 41.8784 17.3814C41.8784 17.3814 41.9183 17.1439 41.9262 17.0182C41.9447 16.7203 41.9932 16.1731 41.954 15.8696C41.9426 15.7835 41.9447 15.7342 41.9404 15.7099" fill="#2D9AEB"/>
<path d="M12.562 36.408C12.8586 36.674 12.7488 36.258 12.8294 36.3039C13.0197 36.4122 14.4243 37.8018 14.5997 38.0282C14.7836 38.265 14.6588 38.1268 14.492 38.2893C13.8332 37.6629 13.1723 37.0497 12.562 36.408Z" fill="#5AD5F4"/>
<path d="M26.4362 8.59211C26.3399 8.23169 25.8355 7.83031 25.6914 7.55322L26.4362 8.59211Z" fill="#229BAD"/>
<path d="M0.446469 17.5925C0.401524 17.3557 0.348732 17.2536 0.339457 16.9654C0.255988 16.7897 0.255988 16.6501 0.339457 16.5474C0.42364 16.8404 0.714712 17.33 0.446469 17.5925Z" fill="#4BB5C0"/>
<path d="M0.33876 16.5475C0.341614 16.6864 0.33448 16.8267 0.33876 16.9655C0.130444 16.6732 0.162548 16.253 0.124023 15.9204C0.283828 16.0815 0.27812 16.3392 0.33876 16.5475Z" fill="#6BCCCE"/>
<path d="M13.3132 22.8189C13.2397 22.8612 12.8081 23.0585 12.7774 23.0272C12.6804 22.4467 13.3916 22.6487 13.4209 22.6099C13.4523 22.5682 13.371 22.3356 13.4423 22.2147C13.4623 22.1807 14.1785 21.6508 14.0623 22.0328C14.0516 22.0675 13.8818 22.3606 13.8489 22.4008C13.7833 22.4814 13.4237 22.7543 13.3125 22.8189H13.3132Z" fill="#006E83"/>
<defs>
<linearGradient id="paint0_linear_2086_271" x1="1.72935" y1="7.60169" x2="19.9707" y2="22.5406" gradientUnits="userSpaceOnUse">
<stop stop-color="#76D0CF"/>
<stop offset="1" stop-color="#1791A4"/>
</linearGradient>
<linearGradient id="paint1_linear_2086_271" x1="45.8647" y1="2.23234" x2="37.2118" y2="36.869" gradientUnits="userSpaceOnUse">
<stop stop-color="#A4BDF6"/>
<stop offset="1" stop-color="#5BA3FB"/>
</linearGradient>
<linearGradient id="paint2_linear_2086_271" x1="9.78875" y1="27.0962" x2="33.6617" y2="39.7075" gradientUnits="userSpaceOnUse">
<stop stop-color="#47E1EA"/>
<stop offset="0.47" stop-color="#5ABCF5"/>
<stop offset="1" stop-color="#57B5FB"/>
</linearGradient>
</defs>
</svg>
