<svg width="159" height="34" viewBox="0 0 159 34" fill="none" xmlns="http://www.w3.org/2000/svg">
<path d="M12.7741 5.07116C7.73307 5.07116 4.33467 8.66954 4.33467 13.5685C4.33467 18.4675 7.73307 22.0659 12.7741 22.0659C15.7832 22.0659 18.2045 20.4583 19.5338 18.6582L23.0509 21.2993C20.8632 24.4 17.2682 26.3146 12.776 26.3146C5.23572 26.3146 0 20.956 0 13.5667C0 6.17738 5.23572 0.818848 12.776 0.818848C17.2682 0.818848 20.8632 2.73338 23.0509 5.83407L19.5338 8.36075C18.2045 6.5225 15.7832 5.06934 12.7741 5.06934V5.07116Z" fill="black"/>
<path d="M26.6442 3.08036C26.6442 1.62538 27.8159 0.82251 28.9876 0.82251C30.1594 0.82251 31.37 1.62538 31.37 3.08036C31.37 4.53533 30.1594 5.4145 28.9876 5.4145C27.8159 5.4145 26.6442 4.53352 26.6442 3.08036ZM26.8796 26.0094V8.40075H31.1383L31.0993 26.0094H26.8796Z" fill="black"/>
<path d="M52.3926 15.2143V26.0095H48.1729V15.8265C48.1729 12.6495 45.9073 11.6159 44.07 11.6159C42.2327 11.6159 40.0449 12.6495 40.0449 15.8265V26.0095H35.8641V8.40081H40.0449V10.2772C41.4132 8.70779 43.4044 8.13379 45.3196 8.13379C48.679 8.13379 52.3908 9.97204 52.3908 15.2161L52.3926 15.2143Z" fill="black"/>
<path d="M62.0814 11.5395V20.5727C62.0814 22.5636 63.331 22.7924 64.5045 22.7924H65.8728V26.0076H62.8248C59.5043 26.0076 57.8635 24.2856 57.8635 21.223V11.5377H55.4811V8.39888H57.8635V3.0022H62.0832V8.39888H66.0693V11.5377H62.0832L62.0814 11.5395Z" fill="black"/>
<path d="M85.874 17.2051V18.3531H72.3564C72.7866 21.1086 74.7796 22.8324 77.4364 22.8324C79.9375 22.8324 81.3818 21.7226 82.1252 20.689L85.0156 22.7561C83.4527 24.9758 80.718 26.3545 77.4364 26.3545C71.9671 26.3545 68.2943 22.4492 68.2943 17.2051C68.2943 11.961 71.8114 8.09375 77.2418 8.09375C82.6722 8.09375 85.8759 11.961 85.8759 17.2051H85.874ZM72.3954 15.7119H81.9676C81.4986 13.2234 79.8967 11.3488 77.2399 11.3488C74.5831 11.3488 72.8644 13.0708 72.3954 15.7119Z" fill="black"/>
<path d="M107.558 8.40081V24.7471C107.558 29.8004 104.08 33.437 98.0251 33.437C94.8214 33.437 92.0867 32.1727 90.4459 30.26L93.2195 28.0021C94.6267 29.4953 96.4232 29.9548 98.0251 29.9548C100.252 29.9548 103.378 28.6924 103.378 24.7489V23.7153C102.089 25.3229 100.213 26.3183 97.6728 26.3183C92.6726 26.3183 89.0776 22.4529 89.0776 17.207C89.0776 11.9611 92.6726 8.13379 97.6728 8.13379C100.213 8.13379 102.087 9.1292 103.378 10.6986V8.40263H107.558V8.40081ZM103.378 17.2051C103.378 14.1808 101.346 11.9992 98.2587 11.9992C95.1718 11.9992 93.1787 14.1808 93.1787 17.2051C93.1787 20.2295 95.1718 22.4492 98.2587 22.4492C101.346 22.4492 103.378 20.2295 103.378 17.2051Z" fill="black"/>
<path d="M122.6 8.13379V11.9992C120.49 12.0373 116.27 12.6876 116.27 17.474V26.0113H112.089V8.40263H116.27V11.5796C117.755 9.16736 120.177 8.17193 122.6 8.13379Z" fill="black"/>
<path d="M141.999 17.2051V18.3531H128.479C128.909 21.1086 130.902 22.8324 133.559 22.8324C136.06 22.8324 137.506 21.7226 138.248 20.689L141.138 22.7561C139.575 24.9758 136.841 26.3545 133.559 26.3545C128.09 26.3545 124.417 22.4492 124.417 17.2051C124.417 11.961 127.934 8.09375 133.364 8.09375C138.795 8.09375 141.999 11.961 141.999 17.2051ZM128.52 15.7119H138.092C137.623 13.2234 136.021 11.3488 133.364 11.3488C130.708 11.3488 128.989 13.0708 128.52 15.7119Z" fill="black"/>
<path d="M149.493 1.85592C149.83 0.315565 153.034 0.602563 153.034 2.01395V6.27534C153.034 6.29169 153.258 6.51148 153.275 6.51148H157.621C158.179 6.51148 158.957 7.43424 158.998 8.01369C159.041 8.60767 158.405 9.98453 157.782 9.98453H153.275C153.258 9.98453 153.034 10.2043 153.034 10.2207V14.4821C153.034 15.0651 151.804 15.7009 151.182 15.6791C150.568 15.6591 149.494 15.1178 149.494 14.4821V10.2207C149.494 10.2043 149.27 9.98453 149.253 9.98453H144.746C144.7 9.98453 144.04 9.59764 143.949 9.50318C143.4 8.92737 143.387 7.70126 143.882 7.08548C144.003 6.93654 144.642 6.51148 144.746 6.51148H149.253C149.27 6.51148 149.494 6.29169 149.494 6.27534C149.494 5.17094 149.294 2.76777 149.494 1.85592H149.493Z" fill="#013A52"/>
</svg>
