<svg width="117" height="120" viewBox="0 0 117 120" fill="none" xmlns="http://www.w3.org/2000/svg">
<path d="M32.4987 103.318C32.4987 103.408 32.4987 103.455 32.3884 103.455H31.3402C31.3245 103.456 31.3086 103.454 31.2937 103.449C31.2787 103.444 31.2648 103.436 31.2528 103.426C31.2409 103.415 31.2311 103.402 31.224 103.388C31.2168 103.373 31.2126 103.358 31.2114 103.342C31.1659 102.921 31.0066 102.523 30.7517 102.191C30.6285 102.074 30.4834 101.985 30.3252 101.928C30.1671 101.871 29.9993 101.848 29.8322 101.861H29.5517V103.337C29.5517 103.412 29.5103 103.455 29.4276 103.455H28.5081C28.4926 103.456 28.4771 103.454 28.4625 103.449C28.4479 103.443 28.4346 103.435 28.4237 103.423C28.4127 103.412 28.4043 103.399 28.399 103.384C28.3937 103.369 28.3917 103.353 28.3931 103.337V98.3987C28.3908 98.3827 28.3922 98.3663 28.3971 98.3509C28.4021 98.3355 28.4105 98.3215 28.4217 98.3101C28.4328 98.2986 28.4465 98.29 28.4615 98.2849C28.4765 98.2798 28.4925 98.2784 28.5081 98.2808H30.4896C31.0156 98.2471 31.5351 98.4152 31.947 98.7525C32.1218 98.9198 32.2589 99.1242 32.3486 99.3515C32.4383 99.5788 32.4786 99.8234 32.4665 100.068C32.4743 100.397 32.3999 100.721 32.2505 101.012C32.1065 101.278 31.889 101.495 31.6252 101.634C31.8723 101.841 32.0767 102.097 32.2267 102.386C32.3766 102.675 32.4691 102.992 32.4987 103.318V103.318ZM31.2482 100.049C31.2482 99.5778 30.977 99.3656 30.4436 99.3656H29.5471V100.738H30.4436C30.977 100.757 31.2482 100.526 31.2482 100.068V100.049ZM32.0436 89.1121L32.1907 89.3432C32.3803 89.6646 32.6632 89.917 32.9999 90.0648C33.4696 90.2152 33.9609 90.2822 34.4527 90.2629C34.5243 90.2635 34.5951 90.2788 34.6608 90.3081C34.7265 90.3373 34.7858 90.3798 34.8351 90.4331C34.8845 90.4864 34.9229 90.5493 34.948 90.6181C34.9731 90.6869 34.9845 90.7602 34.9814 90.8336V94.7812C34.982 94.8535 34.9687 94.9251 34.9421 94.9921C34.9156 95.059 34.8764 95.1198 34.8268 95.1712C34.7772 95.2225 34.7182 95.2632 34.6532 95.291C34.5882 95.3188 34.5185 95.3331 34.4481 95.3331C32.7332 95.3331 31.4827 95.1303 30.6229 94.7105C29.6155 94.1514 28.7785 93.3173 28.2046 92.3004L27.3771 90.9704C27.0966 90.9704 26.8668 91.0034 26.6875 91.0034H25.0599V94.7765C25.0599 94.9229 25.0033 95.0632 24.9024 95.1667C24.8015 95.2702 24.6647 95.3283 24.522 95.3283H20.5268C20.4564 95.3283 20.3866 95.314 20.3216 95.2862C20.2566 95.2585 20.1976 95.2177 20.148 95.1664C20.0985 95.1151 20.0593 95.0543 20.0327 94.9873C20.0062 94.9204 19.9929 94.8488 19.9935 94.7765V74.2035C19.9935 74.0584 20.0497 73.9192 20.1497 73.8166C20.2497 73.714 20.3854 73.6564 20.5268 73.6564H26.5495C27.7056 73.6238 28.8561 73.8328 29.931 74.2706C31.0059 74.7085 31.9828 75.366 32.8022 76.2033C33.6068 76.9946 34.244 77.9473 34.6743 79.0021C35.1046 80.0569 35.3187 81.1913 35.3032 82.3346C35.3064 83.745 34.9717 85.1347 34.3285 86.3813C33.7701 87.4569 32.9904 88.3951 32.0436 89.131V89.1121ZM30.2368 82.3252C30.2486 81.8594 30.1627 81.3964 29.985 80.9676C29.8074 80.5388 29.542 80.1541 29.2069 79.8396C28.8682 79.5091 28.4694 79.2502 28.0331 79.0778C27.5969 78.9054 27.1318 78.8229 26.6645 78.835H25.0599V85.7823H26.6645C27.6069 85.8087 28.5211 85.4509 29.2069 84.7871C29.5407 84.4807 29.8057 84.1035 29.9835 83.6817C30.1613 83.2599 30.2477 82.8035 30.2368 82.344V82.3252ZM23.4876 98.7572C23.8218 99.1226 24.0078 99.605 24.0078 100.106C24.0078 100.607 23.8218 101.09 23.4876 101.455C23.0774 101.796 22.5566 101.964 22.0302 101.927H21.1107V103.342C21.1107 103.417 21.0693 103.459 20.9865 103.459H20.067C20.0514 103.462 20.0355 103.46 20.0204 103.455C20.0054 103.45 19.9918 103.442 19.9806 103.43C19.9694 103.419 19.9611 103.405 19.9561 103.389C19.9511 103.374 19.9498 103.358 19.9521 103.342V98.3987C19.9498 98.3827 19.9511 98.3663 19.9561 98.3509C19.9611 98.3355 19.9694 98.3215 19.9806 98.3101C19.9918 98.2986 20.0054 98.29 20.0204 98.2849C20.0355 98.2798 20.0514 98.2784 20.067 98.2808H22.0256C22.5539 98.2459 23.0758 98.4159 23.4876 98.7572V98.7572ZM22.798 100.106C22.798 99.6344 22.5313 99.3845 22.0026 99.3845H21.1291V100.823H22.0026C22.5681 100.823 22.8164 100.582 22.8164 100.106H22.798ZM116.5 27.6053V92.39C116.491 99.5773 113.705 106.468 108.75 111.55C103.796 116.632 97.0796 119.491 90.0735 119.5H26.9219C19.9162 119.491 13.2 116.632 8.24659 111.55C3.29323 106.467 0.5073 99.5769 0.5 92.39L0.5 27.6053C0.507302 20.4188 3.29338 13.5288 8.24687 8.44722C13.2004 3.36562 19.9166 0.507491 26.9219 0.5L90.0735 0.5C97.0792 0.507489 103.796 3.36547 108.75 8.44693C113.704 13.5284 116.491 20.4184 116.5 27.6053V27.6053ZM110.523 27.6053C110.515 22.0445 108.357 16.7141 104.524 12.7824C100.691 8.85083 95.494 6.63883 90.0735 6.63135H26.9219C21.5022 6.64008 16.3068 8.85263 12.4744 12.7841C8.64206 16.7156 6.48529 22.0453 6.47677 27.6053V92.39C6.48164 97.954 8.63807 103.289 12.4728 107.224C16.3076 111.158 21.5074 113.372 26.9311 113.378H90.0735C95.4977 113.372 100.698 111.159 104.533 107.224C108.369 103.289 110.526 97.9545 110.532 92.39L110.523 27.6053ZM40.4984 102.375H38.1675V101.431H39.9651C40.0433 101.431 40.08 101.389 40.08 101.304V100.474C40.08 100.389 40.0433 100.347 39.9651 100.347H38.1675V99.4033H40.4662C40.4827 99.4049 40.4993 99.4026 40.5148 99.3967C40.5303 99.3908 40.5444 99.3814 40.5558 99.3691C40.5673 99.3569 40.576 99.3422 40.5811 99.3261C40.5863 99.3099 40.5879 99.2928 40.5858 99.276V98.4176C40.5858 98.3374 40.5444 98.2997 40.4662 98.2997H37.11C37.0944 98.2973 37.0785 98.2987 37.0634 98.3038C37.0484 98.3089 37.0348 98.3175 37.0236 98.329C37.0125 98.3404 37.0041 98.3544 36.9991 98.3698C36.9941 98.3852 36.9928 98.4016 36.9951 98.4176V103.375C36.9928 103.391 36.9941 103.407 36.9991 103.422C37.0041 103.438 37.0125 103.452 37.0236 103.463C37.0348 103.475 37.0484 103.483 37.0634 103.488C37.0785 103.493 37.0944 103.495 37.11 103.492H40.4984C40.5139 103.494 40.5294 103.492 40.544 103.486C40.5586 103.481 40.5719 103.472 40.5828 103.461C40.5938 103.45 40.6022 103.436 40.6075 103.421C40.6128 103.406 40.6148 103.39 40.6134 103.375V102.511C40.618 102.408 40.5766 102.375 40.4984 102.375ZM56.5208 102.375H54.1852V101.431H55.9829C56.061 101.431 56.0978 101.389 56.0978 101.304V100.474C56.0978 100.389 56.061 100.347 55.9829 100.347H54.1852V99.4033H56.484C56.5005 99.4049 56.5171 99.4026 56.5326 99.3967C56.5481 99.3908 56.5621 99.3814 56.5736 99.3691C56.5851 99.3569 56.5937 99.3422 56.5989 99.3261C56.6041 99.3099 56.6057 99.2928 56.6035 99.276V98.4176C56.6035 98.3374 56.5621 98.2997 56.484 98.2997H53.1232C53.1076 98.2973 53.0916 98.2987 53.0766 98.3038C53.0616 98.3089 53.048 98.3175 53.0368 98.329C53.0256 98.3404 53.0172 98.3544 53.0123 98.3698C53.0073 98.3852 53.0059 98.4016 53.0083 98.4176V103.375C53.0059 103.391 53.0073 103.407 53.0123 103.422C53.0172 103.438 53.0256 103.452 53.0368 103.463C53.048 103.475 53.0616 103.483 53.0766 103.488C53.0916 103.493 53.1076 103.495 53.1232 103.492H56.5162C56.5316 103.494 56.5472 103.492 56.5618 103.486C56.5764 103.481 56.5896 103.472 56.6006 103.461C56.6115 103.45 56.62 103.436 56.6252 103.421C56.6305 103.406 56.6325 103.39 56.6311 103.375V102.511C56.6403 102.408 56.5897 102.375 56.5254 102.375H56.5208ZM96.5881 73.6564H85.7196C85.5782 73.6564 85.4425 73.714 85.3425 73.8166C85.2425 73.9192 85.1863 74.0584 85.1863 74.2035V94.7812C85.1857 94.8535 85.199 94.9251 85.2256 94.9921C85.2521 95.059 85.2913 95.1198 85.3409 95.1712C85.3904 95.2225 85.4495 95.2632 85.5145 95.291C85.5795 95.3188 85.6492 95.3331 85.7196 95.3331H96.5881C96.6586 95.3331 96.7283 95.3188 96.7933 95.291C96.8583 95.2632 96.9173 95.2225 96.9669 95.1712C97.0165 95.1198 97.0557 95.059 97.0822 94.9921C97.1087 94.9251 97.1221 94.8535 97.1215 94.7812V90.8336C97.1221 90.7614 97.1087 90.6897 97.0822 90.6228C97.0557 90.5559 97.0165 90.495 96.9669 90.4437C96.9173 90.3924 96.8583 90.3517 96.7933 90.3239C96.7283 90.2961 96.6586 90.2818 96.5881 90.2818H90.2528V87.0793H96.2295C96.3722 87.0793 96.509 87.0212 96.6099 86.9177C96.7108 86.8142 96.7675 86.6739 96.7675 86.5275V82.7214C96.7675 82.6491 96.7535 82.5776 96.7264 82.5109C96.6993 82.4442 96.6596 82.3837 96.6096 82.3328C96.5596 82.2819 96.5003 82.2417 96.435 82.2145C96.3698 82.1873 96.3 82.1736 96.2295 82.1742H90.2528V78.7077H96.5881C96.6586 78.7077 96.7283 78.6934 96.7933 78.6656C96.8583 78.6378 96.9173 78.5971 96.9669 78.5458C97.0165 78.4945 97.0557 78.4336 97.0822 78.3667C97.1087 78.2998 97.1221 78.2281 97.1215 78.1559V74.2035C97.1215 74.1317 97.1077 74.0605 97.0809 73.9941C97.0541 73.9277 97.0148 73.8674 96.9653 73.8166C96.9157 73.7658 96.8569 73.7255 96.7922 73.698C96.7275 73.6705 96.6582 73.6564 96.5881 73.6564ZM48.5257 98.2808H45.1879C45.1723 98.2784 45.1563 98.2798 45.1413 98.2849C45.1263 98.29 45.1126 98.2986 45.1015 98.3101C45.0903 98.3215 45.0819 98.3355 45.0769 98.3509C45.072 98.3663 45.0706 98.3827 45.0729 98.3987V103.356C45.0706 103.372 45.072 103.388 45.0769 103.403C45.0819 103.419 45.0903 103.433 45.1015 103.444C45.1126 103.456 45.1263 103.464 45.1413 103.47C45.1563 103.475 45.1723 103.476 45.1879 103.474H46.1074C46.1232 103.476 46.1393 103.474 46.1544 103.469C46.1696 103.464 46.1835 103.456 46.195 103.444C46.2065 103.433 46.2153 103.419 46.2208 103.404C46.2264 103.388 46.2285 103.372 46.2269 103.356V101.587H48.2039C48.2774 101.587 48.3188 101.545 48.3188 101.46V100.592C48.3202 100.576 48.3182 100.56 48.3129 100.545C48.3077 100.53 48.2992 100.517 48.2883 100.505C48.2773 100.494 48.264 100.485 48.2495 100.48C48.2349 100.475 48.2193 100.473 48.2039 100.474H46.2269V99.3939H48.5257C48.5413 99.3963 48.5573 99.3949 48.5723 99.3898C48.5873 99.3847 48.6009 99.3761 48.6121 99.3646C48.6233 99.3532 48.6317 99.3392 48.6366 99.3238C48.6416 99.3084 48.6429 99.292 48.6406 99.276V98.3987C48.6429 98.3827 48.6416 98.3663 48.6366 98.3509C48.6317 98.3355 48.6233 98.3215 48.6121 98.3101C48.6009 98.2986 48.5873 98.29 48.5723 98.2849C48.5573 98.2798 48.5413 98.2784 48.5257 98.2808ZM62.2677 90.2629H59.9689C58.1621 90.2629 56.7506 89.7252 55.7162 88.6122C55.1899 88.0624 54.7786 87.4083 54.5074 86.6897C54.2363 85.9712 54.111 85.2034 54.1393 84.4334C54.1153 83.675 54.2423 82.9195 54.5127 82.2132C54.783 81.5068 55.191 80.8645 55.7116 80.3254C56.769 79.2218 58.1529 78.6888 59.9413 78.6888H62.2401C62.3827 78.6888 62.5196 78.6307 62.6204 78.5272C62.7213 78.4237 62.778 78.2833 62.778 78.137V74.1846C62.778 74.1124 62.7641 74.0409 62.737 73.9742C62.7099 73.9075 62.6702 73.847 62.6202 73.7961C62.5702 73.7452 62.5108 73.705 62.4456 73.6778C62.3803 73.6506 62.3105 73.6369 62.2401 73.6375H59.808C56.6725 73.6375 54.0657 74.6751 52.0704 76.7268C50.1317 78.8192 49.053 81.5971 49.0581 84.4839C49.0632 87.3707 50.1519 90.1445 52.098 92.2297C54.1163 94.2766 56.769 95.3142 59.9827 95.3142H62.2815C62.4241 95.3142 62.5609 95.2561 62.6618 95.1526C62.7627 95.0491 62.8194 94.9087 62.8194 94.7624V90.8147C62.8146 90.6692 62.7539 90.5315 62.6505 90.4317C62.5472 90.3318 62.4096 90.278 62.2677 90.2818V90.2629ZM62.1435 98.2808H61.224C61.2084 98.2784 61.1924 98.2798 61.1774 98.2849C61.1624 98.29 61.1488 98.2986 61.1376 98.3101C61.1264 98.3215 61.118 98.3355 61.1131 98.3509C61.1081 98.3663 61.1068 98.3827 61.1091 98.3987V103.356C61.1068 103.372 61.1081 103.388 61.1131 103.403C61.118 103.419 61.1264 103.433 61.1376 103.444C61.1488 103.456 61.1624 103.464 61.1774 103.47C61.1924 103.475 61.2084 103.476 61.224 103.474H62.1435C62.1593 103.476 62.1754 103.474 62.1906 103.469C62.2058 103.464 62.2196 103.456 62.2311 103.444C62.2426 103.433 62.2515 103.419 62.257 103.404C62.2625 103.388 62.2646 103.372 62.2631 103.356V98.3987C62.2631 98.3186 62.2217 98.2808 62.1435 98.2808V98.2808ZM70.4191 98.2808H66.6491C66.5664 98.2808 66.525 98.3186 66.525 98.3987V99.276C66.525 99.3514 66.5664 99.3939 66.6491 99.3939H67.9502V103.356C67.9479 103.372 67.9492 103.388 67.9542 103.403C67.9591 103.419 67.9675 103.433 67.9787 103.444C67.9899 103.456 68.0035 103.464 68.0185 103.47C68.0335 103.475 68.0495 103.476 68.0651 103.474H68.9846C69.0001 103.475 69.0157 103.473 69.0302 103.468C69.0448 103.462 69.0581 103.454 69.069 103.442C69.08 103.431 69.0884 103.417 69.0937 103.402C69.099 103.388 69.101 103.372 69.0996 103.356V99.3939H70.4053C70.4211 99.3961 70.4372 99.3946 70.4523 99.3895C70.4675 99.3845 70.4814 99.376 70.4928 99.3646C70.5043 99.3533 70.5132 99.3394 70.5187 99.3241C70.5243 99.3087 70.5263 99.2923 70.5248 99.276V98.3987C70.5524 98.3186 70.511 98.2808 70.4329 98.2808H70.4191ZM69.2973 94.7812V74.2035C69.2973 74.1313 69.2833 74.0597 69.2562 73.993C69.2292 73.9263 69.1895 73.8658 69.1395 73.815C69.0894 73.7641 69.0301 73.7239 68.9649 73.6967C68.8996 73.6695 68.8298 73.6558 68.7594 73.6564H64.7641C64.6227 73.6564 64.487 73.714 64.387 73.8166C64.287 73.9192 64.2308 74.0584 64.2308 74.2035V94.7812C64.2302 94.8535 64.2435 94.9251 64.2701 94.9921C64.2966 95.059 64.3358 95.1198 64.3854 95.1712C64.435 95.2225 64.494 95.2632 64.559 95.291C64.624 95.3188 64.6937 95.3331 64.7641 95.3331H68.7594C68.8312 95.335 68.9026 95.3221 68.9695 95.2952C69.0363 95.2683 69.0973 95.228 69.1487 95.1765C69.2001 95.1251 69.241 95.0636 69.2688 94.9957C69.2967 94.9278 69.3111 94.8549 69.3111 94.7812H69.2973ZM48.2177 73.6564H37.3629C37.2921 73.6551 37.2218 73.6684 37.156 73.6953C37.0902 73.7222 37.0303 73.7623 36.9798 73.8133C36.9293 73.8642 36.8892 73.9249 36.8619 73.9919C36.8345 74.0589 36.8204 74.1309 36.8204 74.2035V94.7812C36.8204 94.9276 36.8771 95.0679 36.9779 95.1714C37.0788 95.2749 37.2156 95.3331 37.3583 95.3331H48.2268C48.2983 95.3343 48.3692 95.321 48.4355 95.2938C48.5018 95.2666 48.5622 95.2262 48.6132 95.1748C48.6641 95.1234 48.7045 95.0622 48.7321 94.9946C48.7597 94.927 48.774 94.8545 48.7739 94.7812V90.8336C48.7739 90.6872 48.7173 90.5469 48.6164 90.4434C48.5155 90.3399 48.3787 90.2818 48.236 90.2818H41.8777V87.0793H47.8544C47.9249 87.0793 47.9946 87.065 48.0596 87.0372C48.1246 87.0094 48.1836 86.9687 48.2332 86.9174C48.2828 86.8661 48.322 86.8052 48.3485 86.7383C48.375 86.6714 48.3884 86.5997 48.3878 86.5275V82.7214C48.3878 82.5763 48.3316 82.4371 48.2316 82.3345C48.1315 82.2319 47.9959 82.1742 47.8544 82.1742H41.8777V78.7077H48.2177C48.3603 78.7077 48.4971 78.6495 48.598 78.5461C48.6989 78.4426 48.7556 78.3022 48.7556 78.1559V74.2035C48.7556 74.06 48.7007 73.9223 48.6026 73.8199C48.5046 73.7176 48.3713 73.6589 48.2314 73.6564H48.2177ZM87.7563 103.337C87.7563 103.426 87.7333 103.474 87.6506 103.474H86.5977C86.582 103.475 86.5662 103.473 86.5512 103.468C86.5363 103.463 86.5224 103.455 86.5104 103.444C86.4985 103.434 86.4886 103.421 86.4815 103.407C86.4744 103.392 86.4702 103.377 86.469 103.36C86.4254 102.94 86.266 102.541 86.0093 102.21C85.8867 102.092 85.7416 102.002 85.5833 101.945C85.4251 101.888 85.257 101.866 85.0898 101.879H84.8047V103.356C84.8047 103.431 84.7679 103.474 84.6852 103.474H83.7657C83.75 103.476 83.7341 103.475 83.7191 103.47C83.7041 103.464 83.6904 103.456 83.6793 103.444C83.6681 103.433 83.6597 103.419 83.6547 103.403C83.6498 103.388 83.6484 103.372 83.6507 103.356V98.3987C83.6484 98.3827 83.6498 98.3663 83.6547 98.3509C83.6597 98.3355 83.6681 98.3215 83.6793 98.3101C83.6904 98.2986 83.7041 98.29 83.7191 98.2849C83.7341 98.2798 83.75 98.2784 83.7657 98.2808H85.7472C86.2717 98.2478 86.7895 98.4159 87.2 98.7525C87.3748 98.9198 87.5118 99.1242 87.6016 99.3515C87.6913 99.5788 87.7316 99.8234 87.7195 100.068C87.7273 100.397 87.6529 100.721 87.5035 101.012C87.3601 101.277 87.1444 101.493 86.8828 101.634C87.1317 101.84 87.338 102.096 87.4896 102.385C87.6412 102.674 87.735 102.991 87.7655 103.318L87.7563 103.337ZM86.5058 100.068C86.5058 99.5967 86.2391 99.3845 85.7012 99.3845H84.7817V100.757H85.7012C86.2483 100.757 86.515 100.526 86.515 100.068H86.5058ZM58.4287 27.5534C61.3662 27.5504 64.2737 28.1585 66.9755 29.3409L66.0836 31.501C63.6598 30.4476 61.0542 29.9047 58.4218 29.9047C55.7895 29.9047 53.1839 30.4476 50.7601 31.501L49.8728 29.3409C52.577 28.1559 55.4881 27.5477 58.4287 27.5534V27.5534ZM45.1557 19.2572C45.3166 19.1817 45.4775 19.1016 45.643 19.0308C46.8739 18.495 48.1361 18.0382 49.4222 17.6631L49.0866 16.4792L48.1441 16.7716L48.2958 17.2433C48.02 17.3329 47.7487 17.4319 47.4774 17.5263L47.3211 17.0546C46.9901 17.1678 46.6591 17.2905 46.3327 17.4178L46.512 17.8894C46.2453 17.9932 45.9741 18.1017 45.7074 18.2149L45.5281 17.7432L45.1741 17.8894L44.6684 18.1253H44.6178L45.0959 19.2808L45.1557 19.2572ZM53.4312 21.9786L52.7968 18.2054C51.7715 18.3988 50.7601 18.6394 49.7716 18.9318L50.8198 22.6106C51.6821 22.3536 52.5568 22.1426 53.4404 21.9786H53.4312ZM58.4287 21.5069C58.8885 21.5069 59.3161 21.5069 59.7574 21.54L59.9689 17.7102C59.4586 17.6866 58.9437 17.6725 58.4287 17.6725C57.9138 17.6725 57.3805 17.6725 56.861 17.7149L57.0725 21.54C57.5322 21.5164 57.969 21.5069 58.4287 21.5069V21.5069ZM64.4699 15.6869C64.1756 15.6303 63.886 15.5831 63.5918 15.5359L63.5182 16.0359C63.2377 15.9887 62.9481 15.9604 62.6631 15.9227L62.732 15.4133C62.4286 15.3709 62.1251 15.3331 61.8125 15.3048L61.7665 15.8095C61.4815 15.7812 61.1918 15.7623 60.9068 15.7435L60.9482 15.2247C60.6723 15.2247 60.3965 15.1775 60.1206 15.1681L60.0517 16.3943C61.4629 16.4707 62.868 16.6393 64.2584 16.899L64.4699 15.6869ZM56.8012 16.3991L56.7323 15.1681C56.4472 15.1681 56.1622 15.2011 55.8817 15.2247L55.9231 15.7435C55.6334 15.7435 55.3438 15.7812 55.0588 15.8095L55.0174 15.3048C54.7093 15.3379 54.4059 15.3756 54.0979 15.418L54.1668 15.9227C53.8772 15.9604 53.5922 15.9934 53.3071 16.0359L53.2381 15.5642L52.3784 15.7105L52.5807 16.9273C53.9745 16.6548 55.3845 16.4783 56.8012 16.3991V16.3991ZM71.7018 19.2289H71.7432L72.2029 18.1017H72.1615L71.6604 17.8706C71.5363 17.814 71.4075 17.7668 71.2834 17.7149L71.0995 18.1866C70.8328 18.0734 70.5662 17.9649 70.2949 17.8611L70.4788 17.3895C70.1616 17.2669 69.8352 17.149 69.5134 17.0311L69.3524 17.5027C69.0812 17.4084 68.8099 17.3093 68.5341 17.2197L68.6904 16.7481C68.3778 16.6443 68.0605 16.55 67.7433 16.4557L67.4077 17.6348C68.6967 18.0123 69.9618 18.4706 71.1961 19.0072C71.38 19.0968 71.5363 19.177 71.7018 19.2478V19.2289ZM68.0835 26.6714C65.0312 25.3359 61.7471 24.6475 58.4287 24.6475C55.1104 24.6475 51.8263 25.3359 48.7739 26.6714L49.7256 28.9872C52.4757 27.7873 55.4334 27.1689 58.4218 27.1689C61.4103 27.1689 64.368 27.7873 67.118 28.9872L68.0835 26.6714ZM69.2099 25.0584H69.2467L69.5685 24.3085H69.5317L69.1272 24.1198C65.7458 22.646 62.1096 21.8865 58.4356 21.8865C54.7617 21.8865 51.1255 22.646 47.7441 24.1198C47.6016 24.1811 47.4683 24.2519 47.3303 24.3132H47.2935L47.6154 25.0584H47.6522L48.0521 24.8697C51.3364 23.4396 54.8677 22.7025 58.4356 22.7025C62.0035 22.7025 65.5349 23.4396 68.8191 24.8697L69.2099 25.0584ZM68.2261 26.3177L68.6858 25.2282C65.4477 23.8168 61.9654 23.0894 58.4471 23.0894C54.9288 23.0894 51.4466 23.8168 48.2085 25.2282L48.6682 26.3177C48.6353 26.1037 48.6752 25.8847 48.7811 25.6973C48.8871 25.51 49.0526 25.3657 49.25 25.2888C49.4474 25.2119 49.6646 25.207 49.865 25.275C50.0655 25.343 50.2371 25.4797 50.3509 25.6621C50.7693 25.5159 51.1922 25.3791 51.6198 25.2565C51.6077 25.0393 51.6691 24.8245 51.7936 24.6485C51.9182 24.4724 52.0982 24.3459 52.3032 24.2904C52.5083 24.2349 52.7257 24.2538 52.9187 24.3439C53.1117 24.434 53.2684 24.5898 53.3623 24.7848C53.7607 24.7 54.1653 24.6245 54.576 24.5585C54.587 24.3354 54.6748 24.1236 54.8238 23.9607C54.9727 23.7979 55.1732 23.6945 55.3895 23.669C55.6058 23.6436 55.8238 23.6976 56.0049 23.8216C56.186 23.9457 56.3183 24.1315 56.3782 24.3462C56.7644 24.3132 57.1506 24.2849 57.5414 24.2708C57.5414 24.0206 57.6383 23.7807 57.8107 23.6038C57.9832 23.4269 58.2171 23.3275 58.4609 23.3275C58.7048 23.3275 58.9387 23.4269 59.1111 23.6038C59.2836 23.7807 59.3804 24.0206 59.3804 24.2708C59.7712 24.2708 60.1574 24.3085 60.5436 24.3415C60.6038 24.1266 60.7365 23.9406 60.918 23.8168C61.0995 23.6929 61.318 23.6392 61.5345 23.6653C61.751 23.6913 61.9514 23.7955 62.1 23.959C62.2486 24.1226 62.3357 24.3351 62.3458 24.5585C62.7504 24.6198 63.1596 24.6952 63.5596 24.7801C63.6529 24.5875 63.8076 24.4334 63.998 24.3434C64.1884 24.2534 64.4031 24.2328 64.6065 24.2851C64.8099 24.3374 64.9897 24.4594 65.1162 24.6309C65.2427 24.8025 65.3083 25.0132 65.302 25.2282C65.7296 25.3555 66.1526 25.4876 66.5755 25.6385C66.6915 25.4625 66.862 25.3318 67.0595 25.2676C67.2569 25.2034 67.4696 25.2094 67.6633 25.2847C67.857 25.3601 68.0202 25.5002 68.1265 25.6826C68.2328 25.8649 68.276 26.0787 68.249 26.2894L68.2261 26.3177ZM49.0498 18.1677C48.02 18.4931 47.0131 18.861 46.0292 19.2855L45.7856 19.3657L46.0154 19.8892C46.0936 19.8562 46.1764 19.8279 46.2545 19.7902C47.22 19.3814 48.2085 19.0182 49.2199 18.7007L49.0498 18.1677ZM47.8544 23.6765C48.6798 23.3186 49.5222 23.0038 50.3785 22.7332L49.3302 19.0591C48.3341 19.3735 47.3594 19.732 46.4062 20.1345C46.3281 20.1722 46.2453 20.2005 46.1626 20.2335L47.6154 23.7661C47.6705 23.7378 47.7533 23.7095 47.8544 23.6765ZM56.5897 21.573L56.3782 17.7479C55.3331 17.8203 54.3048 17.9413 53.2933 18.1111L53.9278 21.8842C54.8094 21.7347 55.6979 21.6308 56.5897 21.573V21.573ZM53.137 17.1914L53.2289 17.7338C54.2527 17.5609 55.2948 17.4382 56.3553 17.3659L56.3277 16.8141C55.2473 16.8896 54.1852 17.0075 53.137 17.1914ZM71.0673 19.3751L70.8191 19.2761C69.8352 18.8563 68.8237 18.4837 67.7939 18.163L67.6422 18.6912C68.648 19.0044 69.6377 19.3696 70.6076 19.7854L70.8604 19.8845L71.0673 19.3751ZM70.465 20.1345C69.5134 19.7288 68.5341 19.3704 67.541 19.0591L66.4928 22.7379C67.351 23.0052 68.1923 23.3196 69.0168 23.6812L69.2651 23.785L70.7133 20.2524L70.465 20.1345ZM60.254 21.5494C61.1551 21.6123 62.0424 21.716 62.9159 21.8607L63.5504 18.0875C62.5286 17.9151 61.499 17.7954 60.4654 17.7291L60.254 21.5494ZM63.7067 17.1631C62.65 16.9836 61.585 16.8592 60.516 16.7905L60.4884 17.3423C61.5359 17.4079 62.5795 17.5291 63.6147 17.7055L63.7067 17.1631ZM63.4033 21.9503C64.289 22.1169 65.1595 22.3244 66.0146 22.5728L67.0629 18.8988C66.0759 18.6063 65.0676 18.3642 64.0377 18.1724L63.4033 21.9503ZM58.4287 39.7689C56.2821 39.7712 54.1703 40.3259 52.2868 41.3823C50.4033 42.4386 48.8082 43.9628 47.6476 45.8154H48.1855C49.317 44.0956 50.8426 42.687 52.6286 41.7132C54.4145 40.7393 56.4062 40.2301 58.4287 40.2301C60.4513 40.2301 62.4429 40.7393 64.2289 41.7132C66.0148 42.687 67.5405 44.0956 68.672 45.8154H69.2099C68.0493 43.9628 66.4542 42.4386 64.5707 41.3823C62.6871 40.3259 60.5754 39.7712 58.4287 39.7689V39.7689ZM79.3015 27.6619C79.467 27.7326 80.7037 27.1195 81.6278 27.5015C81.8672 27.6026 82.0831 27.7545 82.2614 27.9471C82.4397 28.1397 82.5763 28.3688 82.6623 28.6193C82.6863 28.3291 82.62 28.0385 82.473 27.7894C82.326 27.5402 82.1057 27.3453 81.8439 27.2327C81.26 26.9072 79.6095 27.2704 79.5451 27.2327C79.4808 27.1949 78.8785 25.3461 77.4855 26.6384C79.1176 25.8508 79.1176 27.5864 79.2923 27.6619H79.3015ZM58.8563 46.6502H58.1759V47.8151H57.0219V48.5132H58.1759V51.6826H58.8563V48.5132H60.0103V47.8151H58.8563V46.6502ZM58.3966 38.6323C55.9511 38.6409 53.5508 39.3091 51.4366 40.5699C49.3224 41.8306 47.5685 43.6396 46.3511 45.8154H46.8706C48.0659 43.7678 49.7581 42.0729 51.7822 40.8961C53.8062 39.7193 56.093 39.1008 58.4195 39.1008C60.7461 39.1008 63.0329 39.7193 65.0569 40.8961C67.081 42.0729 68.7732 43.7678 69.9685 45.8154H70.488C69.2688 43.6384 67.5125 41.8291 65.3957 40.569C63.2789 39.309 60.8761 38.6426 58.4287 38.637L58.3966 38.6323ZM45.6109 35.227H71.2282V45.7776C69.9778 43.4112 68.1276 41.4351 65.8731 40.0581C63.6186 38.681 61.0434 37.9541 58.4195 37.9541C55.7957 37.9541 53.2205 38.681 50.966 40.0581C48.7115 41.4351 46.8613 43.4112 45.6109 45.7776V35.227ZM57.4679 36.3448L57.569 36.4203L57.7713 36.5759L57.9736 36.7268L58.0517 36.7881L57.9736 37.0381L57.8265 37.5097L57.9736 37.4013L58.1759 37.2456L58.3782 37.0947L58.4149 37.0664L58.5851 37.1938L58.7873 37.3494L58.9896 37.5003V37.4673L58.7873 36.8259V36.7929L58.9896 36.6419L59.1965 36.4816L59.3482 36.3448H58.6172L58.5713 36.1939L58.4287 35.6609L58.392 35.7694L58.1943 36.3448H57.4679ZM67.8674 45.7776H48.9716C50.059 44.2542 51.4812 43.0151 53.1227 42.161C54.7643 41.3069 56.5789 40.8618 58.4195 40.8618C60.2601 40.8618 62.0748 41.3069 63.7164 42.161C65.3579 43.0151 66.7801 44.2542 67.8674 45.7776V45.7776ZM59.4586 43.4194H59.523L59.6839 43.3675L59.8448 43.3109L59.6839 43.2213L59.523 43.1364L59.4264 43.0798L59.523 42.9761L59.6839 42.811L59.8172 42.6742H59.2977L59.362 42.5092L59.4862 42.2026L59.362 42.2403L59.2011 42.2828L59.0448 42.3299H59.0034L58.9666 41.8253L58.8793 41.9007L58.7276 42.0375L58.5805 42.1649V42.1177L58.4103 41.7734L58.2586 42.0658L58.2173 42.146L58.1023 42.0469L57.9414 41.9055L57.7943 41.7734L57.8265 42.3771H57.7805L57.615 42.3063L57.4587 42.245L57.3437 42.1979L57.4587 42.429L57.569 42.6648H56.9575L57.1093 42.8582L57.2794 43.0798L57.3207 43.1317H57.2794L57.1093 43.2213L56.9529 43.3015H56.9299H56.9529L57.1093 43.3723L57.2794 43.4524L57.3529 43.4855L57.2794 43.5609L57.1093 43.7354L56.9529 43.8958H56.9299H57.5092L57.4265 44.0797L57.2794 44.3957L57.4265 44.3438L57.5828 44.292L57.7483 44.2354L57.7805 44.8391L57.8954 44.7306L58.0563 44.5749L58.1989 44.4382L58.3552 44.7212L58.4287 44.8343L58.5667 44.4382V44.3721L58.7138 44.5278L58.8655 44.6976L58.9896 44.8343L59.0218 44.2024L59.1781 44.2731L59.3482 44.3627L59.4126 44.391L59.3482 44.2259L59.2517 43.9524H59.7666L59.6701 43.8062L59.5092 43.5515L59.4586 43.4194ZM70.1524 65.115C69.8477 64.8528 69.4628 64.7091 69.0651 64.7091C68.6674 64.7091 68.2825 64.8528 67.9778 65.115C67.8014 65.2935 67.5636 65.3937 67.3157 65.3937C67.0679 65.3937 66.8301 65.2935 66.6537 65.115C66.3479 64.8533 65.9623 64.71 65.5641 64.71C65.1659 64.71 64.7803 64.8533 64.4745 65.115C64.2981 65.2935 64.0603 65.3937 63.8124 65.3937C63.5646 65.3937 63.3268 65.2935 63.1504 65.115C62.8457 64.8528 62.4608 64.7091 62.0631 64.7091C61.6654 64.7091 61.2804 64.8528 60.9758 65.115C60.7862 65.2719 60.5561 65.3686 60.3137 65.3932C60.0699 65.3687 59.8383 65.272 59.6471 65.115C59.3424 64.8528 58.9574 64.7091 58.5598 64.7091C58.1621 64.7091 57.7771 64.8528 57.4725 65.115C57.2961 65.2935 57.0582 65.3937 56.8104 65.3937C56.5626 65.3937 56.3248 65.2935 56.1484 65.115C55.8426 64.8533 55.457 64.71 55.0588 64.71C54.6605 64.71 54.2749 64.8533 53.9691 65.115C53.7928 65.2935 53.5549 65.3937 53.3071 65.3937C53.0593 65.3937 52.8214 65.2935 52.6451 65.115C52.3404 64.8528 51.9554 64.7091 51.5577 64.7091C51.1601 64.7091 50.7751 64.8528 50.4704 65.115C50.2792 65.272 50.0476 65.3687 49.8038 65.3932C49.5614 65.3686 49.3313 65.2719 49.1418 65.115C48.8371 64.8528 48.4521 64.7091 48.0544 64.7091C47.6568 64.7091 47.2718 64.8528 46.9671 65.115C46.7907 65.2935 46.5529 65.3937 46.3051 65.3937C46.0573 65.3937 45.8194 65.2935 45.643 65.115H45.6155V65.9309C45.8302 66.0449 46.0679 66.1063 46.3097 66.1101C46.6865 66.0898 47.0486 65.9534 47.3487 65.7187C47.5402 65.5315 47.7946 65.4271 48.059 65.4271C48.3235 65.4271 48.5779 65.5315 48.7694 65.7187C49.0606 65.971 49.4295 66.1095 49.8107 66.1095C50.1919 66.1095 50.5608 65.971 50.852 65.7187C51.0435 65.5315 51.2979 65.4271 51.5623 65.4271C51.8268 65.4271 52.0812 65.5315 52.2727 65.7187C52.5627 65.9715 52.931 66.1104 53.3117 66.1104C53.6924 66.1104 54.0607 65.9715 54.3507 65.7187C54.543 65.5312 54.7981 65.4267 55.0634 65.4267C55.3286 65.4267 55.5837 65.5312 55.776 65.7187C56.0661 65.9715 56.4343 66.1104 56.815 66.1104C57.1957 66.1104 57.564 65.9715 57.8541 65.7187C58.0598 65.554 58.3069 65.4526 58.5667 65.4262C58.8264 65.4526 59.0735 65.554 59.2793 65.7187C59.5782 65.9555 59.941 66.0922 60.3183 66.1101C60.695 66.089 61.0569 65.9526 61.3574 65.7187C61.5489 65.5315 61.8032 65.4271 62.0677 65.4271C62.3322 65.4271 62.5865 65.5315 62.778 65.7187C63.0681 65.9715 63.4364 66.1104 63.817 66.1104C64.1977 66.1104 64.566 65.9715 64.8561 65.7187C65.0483 65.5312 65.3034 65.4267 65.5687 65.4267C65.8339 65.4267 66.089 65.5312 66.2813 65.7187C66.5714 65.9715 66.9397 66.1104 67.3203 66.1104C67.701 66.1104 68.0693 65.9715 68.3594 65.7187C68.5516 65.5312 68.8068 65.4267 69.072 65.4267C69.3372 65.4267 69.5923 65.5312 69.7846 65.7187C70.0835 65.9555 70.4463 66.0922 70.8237 66.1101C70.9655 66.1085 71.1063 66.0862 71.242 66.0441V65.2847C71.1152 65.3624 70.9713 65.4062 70.8237 65.4121C70.5763 65.383 70.3428 65.2796 70.1524 65.115V65.115ZM70.1524 66.478C69.8462 66.2193 69.4618 66.0778 69.0651 66.0778C68.6684 66.0778 68.284 66.2193 67.9778 66.478C67.8014 66.6566 67.5636 66.7567 67.3157 66.7567C67.0679 66.7567 66.8301 66.6566 66.6537 66.478C66.3468 66.2189 65.9616 66.0772 65.5641 66.0772C65.1666 66.0772 64.7814 66.2189 64.4745 66.478C64.2981 66.6566 64.0603 66.7567 63.8124 66.7567C63.5646 66.7567 63.3268 66.6566 63.1504 66.478C62.8442 66.2193 62.4598 66.0778 62.0631 66.0778C61.6664 66.0778 61.282 66.2193 60.9758 66.478C60.7986 66.6569 60.56 66.7571 60.3114 66.7571C60.0629 66.7571 59.8242 66.6569 59.6471 66.478C59.3409 66.2193 58.9565 66.0778 58.5598 66.0778C58.1631 66.0778 57.7787 66.2193 57.4725 66.478C57.2961 66.6566 57.0582 66.7567 56.8104 66.7567C56.5626 66.7567 56.3248 66.6566 56.1484 66.478C55.8414 66.2189 55.4563 66.0772 55.0588 66.0772C54.6613 66.0772 54.2761 66.2189 53.9691 66.478C53.7928 66.6566 53.5549 66.7567 53.3071 66.7567C53.0593 66.7567 52.8214 66.6566 52.6451 66.478C52.3388 66.2193 51.9545 66.0778 51.5577 66.0778C51.161 66.0778 50.7767 66.2193 50.4704 66.478C50.2933 66.6569 50.0547 66.7571 49.8061 66.7571C49.5575 66.7571 49.3189 66.6569 49.1418 66.478C48.8355 66.2193 48.4512 66.0778 48.0544 66.0778C47.6577 66.0778 47.2733 66.2193 46.9671 66.478C46.7776 66.6349 46.5475 66.7316 46.3051 66.7563C46.0615 66.7309 45.8301 66.6344 45.6384 66.478V66.478C45.6567 66.6704 45.689 66.8612 45.735 67.0487V67.0487C45.7641 67.1597 45.801 67.2685 45.8453 67.3741C45.9933 67.4262 46.1486 67.4533 46.3051 67.4543C46.6819 67.434 47.044 67.2976 47.3441 67.0628C47.5499 66.8982 47.797 66.7968 48.0567 66.7704C48.3154 66.7956 48.5613 66.8971 48.7648 67.0628C49.056 67.3152 49.4249 67.4536 49.8061 67.4536C50.1873 67.4536 50.5562 67.3152 50.8474 67.0628C51.0509 66.8971 51.2968 66.7956 51.5555 66.7704C51.8152 66.7968 52.0623 66.8982 52.2681 67.0628C52.5581 67.3157 52.9264 67.4546 53.3071 67.4546C53.6878 67.4546 54.0561 67.3157 54.3461 67.0628C54.5384 66.8754 54.7935 66.7709 55.0588 66.7709C55.324 66.7709 55.5791 66.8754 55.7714 67.0628C56.0615 67.3157 56.4297 67.4546 56.8104 67.4546C57.1911 67.4546 57.5594 67.3157 57.8495 67.0628C58.0552 66.8982 58.3023 66.7968 58.5621 66.7704C58.8207 66.7956 59.0666 66.8971 59.2701 67.0628C59.5613 67.3152 59.9302 67.4536 60.3114 67.4536C60.6926 67.4536 61.0615 67.3152 61.3528 67.0628C61.5443 66.8757 61.7986 66.7713 62.0631 66.7713C62.3276 66.7713 62.5819 66.8757 62.7734 67.0628C63.0635 67.3157 63.4318 67.4546 63.8124 67.4546C64.1931 67.4546 64.5614 67.3157 64.8515 67.0628C65.0437 66.8754 65.2988 66.7709 65.5641 66.7709C65.8293 66.7709 66.0844 66.8754 66.2767 67.0628C66.5668 67.3157 66.9351 67.4546 67.3157 67.4546C67.6964 67.4546 68.0647 67.3157 68.3548 67.0628C68.5606 66.8982 68.8077 66.7968 69.0674 66.7704C69.3262 66.7948 69.5724 66.8964 69.7754 67.0628C70.0813 67.3089 70.4538 67.4522 70.842 67.4732H71.003C71.0575 67.3439 71.105 67.2116 71.1455 67.077V67.077C71.1777 66.9544 71.2006 66.8223 71.2236 66.6808C71.1069 66.7483 70.9759 66.7855 70.842 66.7893C70.5887 66.7652 70.3484 66.6633 70.1524 66.4969V66.478ZM34.2044 33.7319C35.1883 34.2035 35.7676 34.3592 36.5491 35.1846C37.3307 36.0099 38.2916 36.1278 39.0594 35.4062L40.0387 34.4582C40.4763 34.5894 40.9441 34.5661 41.3673 34.3922C41.6754 34.9912 41.7627 36.8872 38.6088 36.2788C39.818 37.3966 42.696 37.0711 42.034 33.7413C42.3098 33.4253 42.2685 32.7556 42.2041 32.0151C42.0938 30.7889 42.4018 30.5483 42.3926 29.8927C42.3954 29.5459 42.3225 29.2028 42.1793 28.8886C42.0362 28.5744 41.8263 28.2971 41.565 28.0769C40.8892 27.3694 40.4065 27.1336 40.1214 27.1336C40.0382 27.1496 39.9586 27.1816 39.8869 27.228C39.8869 27.228 41.0225 27.7892 41.3857 28.4967C41.7489 29.2041 41.5558 30.2229 41.4317 30.8549C41.3311 31.389 41.4088 31.9423 41.6524 32.4254C41.8455 32.8311 42.0478 33.3357 41.6524 33.7885C41.257 34.2413 40.218 33.9583 40.218 33.9583C40.1333 33.8188 40.0806 33.6614 40.0639 33.498C40.0471 33.3346 40.0668 33.1695 40.1214 33.015C40.3099 32.5056 40.6271 32.2651 40.6088 31.9727C40.5904 31.6803 40.2685 31.501 39.9329 31.1426C39.5973 30.7841 39.2847 30.0672 39.4732 29.7277C39.5435 29.5499 39.6507 29.39 39.7872 29.2589C39.9238 29.1278 40.0864 29.0286 40.2639 28.9683C40.6593 28.8363 40.7743 28.624 40.595 28.3269C40.4157 28.0297 39.9651 28.0533 39.6755 28.3269C39.439 28.5472 39.2587 28.8236 39.1505 29.1319C39.0423 29.4403 39.0094 29.7711 39.0548 30.0955C39.2208 30.7373 39.5364 31.3281 39.9743 31.817C40.2593 32.1566 39.8869 32.6188 39.2571 32.7603C38.6272 32.9018 38.2272 32.8594 38.1537 32.7603C38.078 32.3359 38.0243 31.9077 37.9928 31.4774C37.8365 30.8643 36.894 30.2134 36.1308 30.2134C35.3676 30.2134 34.8986 30.4021 35.0641 30.9681C35.5009 31.6897 36.3698 30.836 36.3698 30.836C36.7937 31.0631 37.1436 31.4123 37.3767 31.8406C37.6296 32.4632 37.5422 33.0952 37.9146 33.2037C38.287 33.3121 39.1238 33.0292 39.3444 33.3169C39.4963 33.5349 39.5999 33.7844 39.6479 34.0479C39.6479 34.0479 38.4617 35.8732 37.2802 35.1657C36.7882 34.8827 36.1354 34.2224 35.3906 33.7508C34.6458 33.2791 33.8044 33.1188 33.8044 31.8217C33.7749 30.9849 33.8616 30.148 34.0619 29.3362C34.2412 28.525 34.2412 27.6336 35.2802 27.4968C36.3193 27.36 37.3813 27.5487 37.579 27.4732C37.7767 27.3977 37.7537 25.5583 39.4916 26.412C37.9698 25.0254 37.3261 27.0204 37.2802 27.0393C37.2342 27.0582 35.294 26.6997 34.6734 27.0393C34.0527 27.3789 33.8872 27.7468 33.4504 29.8691C33.032 31.8642 33.2205 33.265 34.2044 33.7319ZM41.7627 39.1039C42.0575 39.8206 42.3153 40.5526 42.5351 41.297C41.3536 39.7642 40.2042 39.4482 39.6801 38.8115C39.6126 39.4151 39.6343 40.0256 39.7444 40.6226C38.8795 40.0604 38.2063 39.2363 37.8181 38.2644C37.7721 39.3916 38.2778 41.2263 40.9904 41.896C40.6033 41.4065 40.3594 40.8146 40.2869 40.1887C41.4379 41.0017 42.4545 41.9985 43.2983 43.1412C43.3903 41.1933 43.0638 40.0896 41.7627 39.1039ZM70.1524 63.7708C69.8477 63.5086 69.4628 63.3649 69.0651 63.3649C68.6674 63.3649 68.2825 63.5086 67.9778 63.7708C67.8014 63.9494 67.5636 64.0495 67.3157 64.0495C67.0679 64.0495 66.8301 63.9494 66.6537 63.7708C66.3479 63.5091 65.9623 63.3658 65.5641 63.3658C65.1659 63.3658 64.7803 63.5091 64.4745 63.7708C64.2981 63.9494 64.0603 64.0495 63.8124 64.0495C63.5646 64.0495 63.3268 63.9494 63.1504 63.7708C62.8457 63.5086 62.4608 63.3649 62.0631 63.3649C61.6654 63.3649 61.2804 63.5086 60.9758 63.7708C60.7986 63.9496 60.56 64.0499 60.3114 64.0499C60.0629 64.0499 59.8242 63.9496 59.6471 63.7708C59.3424 63.5086 58.9574 63.3649 58.5598 63.3649C58.1621 63.3649 57.7771 63.5086 57.4725 63.7708C57.2961 63.9494 57.0582 64.0495 56.8104 64.0495C56.5626 64.0495 56.3248 63.9494 56.1484 63.7708C55.8426 63.5091 55.457 63.3658 55.0588 63.3658C54.6605 63.3658 54.2749 63.5091 53.9691 63.7708C53.7928 63.9494 53.5549 64.0495 53.3071 64.0495C53.0593 64.0495 52.8214 63.9494 52.6451 63.7708C52.3404 63.5086 51.9554 63.3649 51.5577 63.3649C51.1601 63.3649 50.7751 63.5086 50.4704 63.7708C50.2792 63.9278 50.0476 64.0245 49.8038 64.049C49.5614 64.0244 49.3313 63.9277 49.1418 63.7708C48.8371 63.5086 48.4521 63.3649 48.0544 63.3649C47.6568 63.3649 47.2718 63.5086 46.9671 63.7708C46.7776 63.9277 46.5475 64.0244 46.3051 64.049C46.0615 64.0237 45.8301 63.9271 45.6384 63.7708H45.6155V64.582C45.8272 64.7004 46.064 64.7635 46.3051 64.7659C46.6819 64.7456 47.044 64.6092 47.3441 64.3745C47.5499 64.2098 47.797 64.1084 48.0567 64.0821C48.3154 64.1072 48.5613 64.2088 48.7648 64.3745C49.056 64.6268 49.4249 64.7653 49.8061 64.7653C50.1873 64.7653 50.5562 64.6268 50.8474 64.3745C51.0509 64.2088 51.2968 64.1072 51.5555 64.0821C51.8152 64.1084 52.0623 64.2098 52.2681 64.3745C52.5581 64.6274 52.9264 64.7662 53.3071 64.7662C53.6878 64.7662 54.0561 64.6274 54.3461 64.3745C54.5384 64.187 54.7935 64.0825 55.0588 64.0825C55.324 64.0825 55.5791 64.187 55.7714 64.3745C56.0615 64.6274 56.4297 64.7662 56.8104 64.7662C57.1911 64.7662 57.5594 64.6274 57.8495 64.3745C58.0552 64.2098 58.3023 64.1084 58.5621 64.0821C58.8207 64.1072 59.0666 64.2088 59.2701 64.3745C59.5613 64.6268 59.9302 64.7653 60.3114 64.7653C60.6926 64.7653 61.0615 64.6268 61.3528 64.3745C61.5443 64.1873 61.7986 64.083 62.0631 64.083C62.3276 64.083 62.5819 64.1873 62.7734 64.3745C63.0635 64.6274 63.4318 64.7662 63.8124 64.7662C64.1931 64.7662 64.5614 64.6274 64.8515 64.3745C65.0437 64.187 65.2988 64.0825 65.5641 64.0825C65.8293 64.0825 66.0844 64.187 66.2767 64.3745C66.5668 64.6274 66.9351 64.7662 67.3157 64.7662C67.6964 64.7662 68.0647 64.6274 68.3548 64.3745C68.5606 64.2098 68.8077 64.1084 69.0674 64.0821C69.3262 64.1064 69.5724 64.2081 69.7754 64.3745C70.0772 64.6093 70.4408 64.7457 70.8191 64.7659C70.9613 64.7651 71.1025 64.7412 71.2374 64.6952V63.9406C71.1106 64.0183 70.9667 64.0621 70.8191 64.0679C70.5733 64.0379 70.3415 63.9346 70.1524 63.7708V63.7708ZM69.0674 67.4732C68.6733 67.4923 68.2939 67.6319 67.9778 67.8741C67.8014 68.0526 67.5636 68.1528 67.3157 68.1528C67.0679 68.1528 66.8301 68.0526 66.6537 67.8741C66.3468 67.615 65.9616 67.4733 65.5641 67.4733C65.1666 67.4733 64.7814 67.615 64.4745 67.8741C64.2981 68.0526 64.0603 68.1528 63.8124 68.1528C63.5646 68.1528 63.3268 68.0526 63.1504 67.8741C62.8442 67.6153 62.4598 67.4738 62.0631 67.4738C61.6664 67.4738 61.282 67.6153 60.9758 67.8741C60.7862 68.031 60.5561 68.1277 60.3137 68.1523C60.0699 68.1278 59.8383 68.0311 59.6471 67.8741C59.3409 67.6153 58.9565 67.4738 58.5598 67.4738C58.1631 67.4738 57.7787 67.6153 57.4725 67.8741C57.2961 68.0526 57.0582 68.1528 56.8104 68.1528C56.5626 68.1528 56.3248 68.0526 56.1484 67.8741C55.8414 67.615 55.4563 67.4733 55.0588 67.4733C54.6613 67.4733 54.2761 67.615 53.9691 67.8741C53.7928 68.0526 53.5549 68.1528 53.3071 68.1528C53.0593 68.1528 52.8214 68.0526 52.6451 67.8741C52.3388 67.6153 51.9545 67.4738 51.5577 67.4738C51.161 67.4738 50.7767 67.6153 50.4704 67.8741C50.2792 68.0311 50.0476 68.1278 49.8038 68.1523C49.5614 68.1277 49.3313 68.031 49.1418 67.8741C48.8355 67.6153 48.4512 67.4738 48.0544 67.4738C47.6577 67.4738 47.2733 67.6153 46.9671 67.8741C46.7838 68.0235 46.5647 68.1196 46.3327 68.1523C46.5522 68.3554 46.8062 68.5152 47.0821 68.624C47.174 68.5721 47.2614 68.5155 47.3441 68.4589C47.5356 68.2718 47.79 68.1674 48.0544 68.1674C48.3189 68.1674 48.5733 68.2718 48.7648 68.4589C49.0438 68.6705 49.3718 68.8038 49.7164 68.8456H49.8957C50.2404 68.8038 50.5684 68.6705 50.8474 68.4589C51.0389 68.2718 51.2933 68.1674 51.5577 68.1674C51.8222 68.1674 52.0766 68.2718 52.2681 68.4589C52.5459 68.6696 52.8722 68.8028 53.2152 68.8456H53.3991C53.742 68.8028 54.0683 68.6696 54.3461 68.4589C54.5384 68.2714 54.7935 68.1669 55.0588 68.1669C55.324 68.1669 55.5791 68.2714 55.7714 68.4589C56.0492 68.6696 56.3755 68.8028 56.7185 68.8456H56.9024C57.2453 68.8028 57.5716 68.6696 57.8495 68.4589C58.0552 68.2942 58.3023 68.1928 58.5621 68.1665C58.8218 68.1928 59.0689 68.2942 59.2747 68.4589C59.5517 68.6711 59.8784 68.8045 60.2218 68.8456H60.4011C60.7457 68.8038 61.0737 68.6705 61.3528 68.4589C61.5443 68.2718 61.7986 68.1674 62.0631 68.1674C62.3276 68.1674 62.5819 68.2718 62.7734 68.4589C63.0512 68.6696 63.3775 68.8028 63.7205 68.8456H63.9044C64.2473 68.8028 64.5736 68.6696 64.8515 68.4589C65.0437 68.2714 65.2988 68.1669 65.5641 68.1669C65.8293 68.1669 66.0844 68.2714 66.2767 68.4589C66.5545 68.6696 66.8808 68.8028 67.2238 68.8456H67.4077C67.7507 68.8028 68.0769 68.6696 68.3548 68.4589C68.547 68.2714 68.8022 68.1669 69.0674 68.1669C69.3326 68.1669 69.5878 68.2714 69.78 68.4589L69.9225 68.5532C70.1591 68.4427 70.3753 68.2912 70.5616 68.1052C70.4175 68.0435 70.2803 67.966 70.1524 67.8741C69.8378 67.6325 69.4599 67.4929 69.0674 67.4732V67.4732ZM90.1194 36.5523C90.1194 38.3351 91.7975 39.9481 93.5722 41.6555C95.6181 43.6222 97.7329 45.655 97.7329 48.3009C97.7322 48.9132 97.5881 49.5164 97.3129 50.0597C97.0377 50.603 96.6394 51.0706 96.1514 51.4232C95.7206 51.7546 95.2452 52.0199 94.7399 52.2108C94.7306 52.8863 94.68 53.5605 94.5882 54.2295C94.4534 54.9087 94.444 55.6078 94.5606 56.2905C94.7353 56.8942 95.5629 57.6724 96.2249 58.295C96.546 58.5714 96.8428 58.876 97.1123 59.2053C97.4663 59.7194 97.2916 60.8324 97.1123 62.0068C97.0387 62.4785 96.9697 62.9077 96.9422 63.2567C96.9146 63.6057 96.9192 64.0302 96.9192 64.4735C96.9192 65.5064 96.9192 66.577 96.6203 67.1855C95.9679 68.2119 95.015 68.9995 93.8986 69.4352C93.7929 69.4776 93.6871 69.5201 93.5722 69.5578L93.448 69.6003L93.3653 69.6427L93.2412 69.6899L93.0021 69.7701C92.8963 69.8031 92.7952 69.8267 92.6895 69.8502H92.6435C92.329 69.9271 92.0042 69.9494 91.6826 69.9163C91.5938 69.9211 91.5048 69.9211 91.4159 69.9163V69.9163C91.331 69.9087 91.2466 69.8961 91.1631 69.8785V69.8785C91.0389 69.855 90.9194 69.8219 90.7999 69.7889L90.6574 69.7418L90.5792 69.7182C89.5539 69.4305 89.1999 69.0815 89.0666 68.7136C88.9697 68.4025 88.9517 68.0711 89.0145 67.7509C89.0772 67.4306 89.2186 67.1321 89.4252 66.8836C89.9815 66.2799 93.0527 65.9781 93.563 64.7141C94.0733 63.4501 93.563 61.4503 93.563 61.4503C93.563 61.4503 93.0435 61.1484 90.6206 59.8844C89.1361 59.1041 87.9887 57.784 87.4023 56.1821C86.6852 56.4757 86.0046 56.8557 85.3748 57.314C84.9131 57.6435 84.5288 58.0744 84.2497 58.5753C83.9705 59.0762 83.8036 59.6346 83.7611 60.2099C83.7243 61.1201 84.0231 61.7191 83.7243 62.7803C83.4255 63.8415 82.2531 64.167 81.4623 65.0725C80.7957 65.8319 79.6233 67.2609 79.5268 67.4307C79.3583 67.6639 79.1622 67.8747 78.9429 68.058C78.736 68.2278 75.5591 68.7466 73.9821 68.4919C73.3247 68.3834 73.812 67.3647 74.3178 66.5299C75.3936 64.7376 78.1383 63.9594 79.5543 62.1813C80.9704 60.4033 79.6095 58.5921 79.6095 56.4179C79.6095 54.2436 81.4485 52.7768 81.4485 52.7768C80.0187 51.56 78.3084 51.3619 76.4832 49.8007C74.0373 51.7958 74.3821 54.6021 74.0235 56.05C73.9158 56.4728 73.7128 56.8638 73.431 57.1915C73.1491 57.5191 72.7962 57.7743 72.4006 57.9366H72.3454V60.7334V65.9215C72.3473 66.283 72.3212 66.6442 72.2673 67.0015C72.1872 67.7561 71.8748 68.4648 71.3754 69.0249C71.2744 69.1312 71.1652 69.229 71.0489 69.3173C70.2933 69.8014 69.4096 70.0322 68.5203 69.9776H48.3142C47.4475 70.0297 46.5855 69.8127 45.8407 69.355C45.6707 69.2303 45.5163 69.0846 45.381 68.9211C44.9323 68.3655 44.654 67.6861 44.581 66.9685C44.5293 66.622 44.5032 66.272 44.5029 65.9215V57.9318H44.4523C44.0576 57.769 43.7056 57.5135 43.4245 57.1859C43.1435 56.8583 42.9412 56.4676 42.834 56.0453C42.4753 54.5973 42.6822 53.7201 42.0984 52.6683C41.7505 51.9595 41.211 51.3684 40.5444 50.9657C39.8556 51.5562 39.0583 51.9988 38.1997 52.2674C37.3739 52.6028 36.5258 52.8771 35.6618 53.0881C36.1516 53.4805 36.549 53.9811 36.8244 54.5526C37.0998 55.1242 37.2461 55.752 37.2526 56.3896C37.2526 58.5591 35.9009 60.3655 37.3077 62.153C38.7146 63.9406 41.4455 64.7093 42.5443 66.5016C43.0454 67.3364 43.5374 68.3551 42.8799 68.4589C41.303 68.7183 38.1215 68.1995 37.9192 68.0297C37.7009 67.8452 37.5049 67.6346 37.3353 67.4024C37.2158 67.2373 36.0664 65.8036 35.3998 65.0442C34.5998 64.1717 33.4182 63.8321 33.1424 62.7567C32.8665 61.6814 33.1424 61.0966 33.1102 60.1863C33.067 59.6111 32.8998 59.053 32.6207 58.5522C32.3417 58.0514 31.9577 57.6204 31.4965 57.2904C30.8652 56.8319 30.183 56.4519 29.4644 56.1585C28.877 57.7586 27.7297 59.0769 26.2461 59.8561C23.8232 61.1201 23.2991 61.422 23.2991 61.422C23.2991 61.422 22.7704 63.4218 23.2991 64.6905C23.8278 65.9592 26.8944 66.2516 27.4369 66.86C27.6423 67.1083 27.783 67.406 27.8457 67.7252C27.9084 68.0444 27.8911 68.3748 27.7955 68.6853C27.6667 69.0579 27.3081 69.4069 26.2829 69.6946H26.2047L26.0622 69.7418C25.9429 69.7788 25.8217 69.8087 25.699 69.8314V69.8314L25.4461 69.8691L25.1795 69.8927C24.8578 69.9235 24.5334 69.9012 24.2186 69.8267H24.1726C24.0669 69.8267 23.9611 69.7795 23.8554 69.7512L23.6209 69.671L23.4968 69.6239L23.4094 69.5814L23.2899 69.539C23.1776 69.5022 23.0671 69.4597 22.9589 69.4116C21.8439 68.978 20.8923 68.1918 20.2417 67.1666C19.9429 66.5582 19.9429 65.4876 19.9429 64.4547C19.9429 64.0066 19.9429 63.5916 19.9153 63.2378C19.8877 62.8841 19.8234 62.4502 19.7498 61.9833C19.5613 60.8089 19.382 59.7005 19.7498 59.1864C20.0183 58.8564 20.3136 58.5503 20.6325 58.2714C21.2992 57.6489 22.1267 56.8565 22.2968 56.2717C22.4154 55.5877 22.4076 54.8869 22.2739 54.2059C22.1819 53.5385 22.1312 52.8659 22.1221 52.192C21.6131 52.0111 21.1317 51.757 20.6923 51.4373C20.2053 51.0853 19.8078 50.6183 19.5334 50.0758C19.2589 49.5332 19.1156 48.931 19.1154 48.3198C19.1154 45.6739 21.2302 43.6411 23.2531 41.6743C25.0278 39.967 26.7059 38.3729 26.7059 36.5665C26.7059 35.5807 26.4208 34.9252 25.8875 34.6799C25.7307 34.6108 25.5617 34.5755 25.391 34.5761C25.1042 34.6139 24.8384 34.7502 24.637 34.9629C24.2692 35.3213 23.8784 36.5193 23.6853 37.4343C23.5152 38.2644 22.6233 40.7358 18.9498 38.9294C22.8256 39.401 20.9865 34.246 25.1013 34.1092C25.4344 34.0569 25.7752 34.101 26.0852 34.2366C26.5863 34.4724 27.1794 35.0619 27.1794 36.5712C27.1794 38.5709 25.4323 40.25 23.5795 42.0328C21.6026 43.9194 19.5659 45.8908 19.5659 48.3245C19.564 48.8587 19.6885 49.3855 19.9288 49.8595C20.169 50.3335 20.5178 50.7406 20.9452 51.0459C21.3027 51.3178 21.6938 51.5398 22.1083 51.7062C22.1083 51.5222 22.1083 51.3383 22.1543 51.1496C22.174 50.9911 22.2016 50.8336 22.2371 50.678C21.7359 50.5655 21.2902 50.2734 20.9801 49.8542C20.6701 49.4349 20.5158 48.916 20.5452 48.3905C20.5452 46.0323 22.283 44.3391 23.9795 42.6978C25.7496 40.981 27.5794 39.2077 27.5794 36.6466C27.5794 35.0289 27.0093 34.0055 25.9289 33.6895C25.3494 33.5626 24.749 33.5776 24.1763 33.7333C23.6035 33.889 23.0746 34.181 22.6325 34.5856L22.6049 34.6186C22.5691 34.6512 22.5368 34.6876 22.5083 34.7271L22.4715 34.7695L22.3704 34.911C21.4923 36.1892 21.2992 38.6841 19.4694 38.2125C21.2348 37.1654 20.0946 36.4486 22.2279 34.2837L22.306 34.2035L22.3474 34.1611C22.8455 33.7192 23.4379 33.4036 24.0768 33.2398C24.7157 33.0759 25.3832 33.0684 26.0254 33.2178C27.7587 33.7319 28.0207 35.576 28.0207 36.6466C28.0207 39.4199 26.1128 41.264 24.2692 43.0515C22.5681 44.6976 20.9682 46.2493 20.9865 48.3858C20.9531 48.8074 21.0725 49.2269 21.3219 49.5638C21.5714 49.9006 21.9333 50.1311 22.3382 50.2111C22.8623 48.7961 24.145 47.9472 25.7036 46.9096C26.0714 46.6643 26.453 46.4379 26.8484 46.1361C28.1766 45.1886 29.2236 43.8828 29.8735 42.3629C29.354 40.0047 29.5701 37.8446 30.4298 36.1184C31.2206 34.5337 30.4896 32.4207 31.17 30.77C30.8252 30.8077 30.1034 30.7417 29.9977 29.6097C29.869 28.1194 31.4689 27.9779 32.062 27.8175C32.3687 27.505 32.7044 27.2238 33.0642 26.978L32.5861 25.9687C32.0712 25.2565 31.308 25.6008 30.7747 24.6434C30.0115 23.2662 31.5562 22.5493 32.2091 22.3134C32.6157 21.9435 33.0826 21.6498 33.5883 21.4456C33.4779 21.3937 33.3817 21.3143 33.3087 21.2146C33.2356 21.115 33.188 20.9982 33.17 20.8749C33.1382 20.6879 33.1767 20.4954 33.2779 20.3363C33.379 20.1773 33.5352 20.0635 33.715 20.018C33.8947 19.9725 34.0846 19.9987 34.2462 20.0912C34.4079 20.1837 34.5293 20.3357 34.586 20.5165C34.6191 20.6106 34.633 20.7107 34.6267 20.8105C34.6203 20.9103 34.594 21.0077 34.5492 21.0966C35.0721 20.9274 35.6199 20.854 36.1676 20.8797C36.8158 20.6391 38.4663 20.2052 38.7008 21.7663C38.8755 22.8558 38.0709 23.0775 38.1077 23.9689L38.2502 24.733C38.5561 24.7037 38.8639 24.7037 39.1697 24.733C39.4507 24.7593 39.7264 24.8276 39.9881 24.9358C40.3513 25.0678 40.8432 24.7 41.2846 24.5113C41.726 24.3226 41.9926 24.3038 42.2041 25.3272C42.2601 25.6391 42.2434 25.9602 42.1555 26.2643C42.0677 26.5683 41.911 26.8468 41.6984 27.077L42.3558 27.959C43.0225 28.8457 44.273 29.5626 44.7189 31.0105C45.0553 32.023 45.2639 33.0754 45.3396 34.1422H46.0614C45.9349 34.0077 45.8626 33.8291 45.8591 33.6423V32.7132C45.8591 32.2227 46.0481 31.7522 46.3848 31.4041C46.7215 31.056 47.1787 30.8586 47.6568 30.8549H48.7877C49.0268 30.853 49.2638 30.8997 49.4852 30.9923C49.7065 31.0848 49.9079 31.2214 50.0775 31.3941C50.2472 31.5669 50.3819 31.7724 50.4738 31.9987C50.5657 32.2251 50.613 32.4679 50.613 32.7132V33.6234C50.6096 33.8112 50.5355 33.9904 50.4061 34.1234H66.4376C66.3111 33.9889 66.2388 33.8103 66.2353 33.6234V32.7132C66.2353 32.2227 66.4243 31.7522 66.761 31.4041C67.0977 31.056 67.5549 30.8586 68.033 30.8549H69.1639C69.6428 30.8574 70.1012 31.0543 70.4389 31.4025C70.7766 31.7507 70.9662 32.2219 70.9662 32.7132V33.6234C70.9628 33.8112 70.8887 33.9904 70.7593 34.1234H72.3408V37.9342C73.3911 38.154 74.4702 38.1875 75.5315 38.0333C75.8509 37.3296 76.2054 36.6432 76.5935 35.9769C76.5935 35.9769 74.7775 35.7788 75.0442 33.5763C74.7821 33.2791 74.8235 32.633 74.8833 31.9444C74.9844 30.7841 74.6994 30.5577 74.704 29.9352C74.6984 29.6637 74.7455 29.3938 74.8426 29.1411C74.9396 28.8885 75.0848 28.6582 75.2695 28.4637C75.3923 28.0726 75.546 27.6924 75.7292 27.327C75.9375 26.9748 76.1963 26.6568 76.497 26.3837V26.3837C76.3895 26.1206 76.3443 25.8351 76.3651 25.5507C76.3859 25.2662 76.472 24.9909 76.6165 24.7471C77.1039 23.9548 77.3199 24.0632 77.6372 24.3604C77.9139 24.6357 78.2228 24.8749 78.5567 25.0725L78.7636 23.9642C78.8003 23.0728 77.9958 22.8511 78.1659 21.7663C78.4142 20.2005 80.0555 20.6344 80.7037 20.8749C81.2501 20.851 81.7964 20.926 82.3175 21.0966C82.2746 21.0062 82.2497 20.9079 82.2442 20.8075C82.2386 20.7071 82.2526 20.6066 82.2853 20.5118C82.3419 20.331 82.4634 20.179 82.625 20.0865C82.7867 19.9939 82.9766 19.9678 83.1563 20.0133C83.336 20.0588 83.4922 20.1725 83.5934 20.3316C83.6945 20.4906 83.7331 20.6831 83.7013 20.8702C83.6828 20.9939 83.635 21.1111 83.5621 21.2115C83.4891 21.3118 83.3933 21.3922 83.2829 21.4456C83.7891 21.649 84.2561 21.9428 84.6622 22.3134C85.315 22.5445 86.8598 23.2567 86.092 24.6386C85.5633 25.5819 84.8001 25.2518 84.2806 25.9687L84.0369 26.4403C84.6898 26.5535 86.3357 26.912 86.161 28.1807C86.0139 29.0721 85.0944 28.9259 84.6346 29.2702C84.619 30.2001 84.4269 31.1181 84.0691 31.9727C83.7933 32.7414 83.0577 33.3876 82.6393 33.9158C82.3076 34.3425 82.1032 34.8584 82.0508 35.4015C81.9037 36.5995 83.1496 37.6324 83.9588 38.3634C85.6001 39.8491 86.3357 41.9998 87.0897 43.3911C87.8553 44.4846 88.8221 45.4139 89.9355 46.1266L90.5608 46.5181C92.455 47.7114 93.9032 48.6264 94.4641 50.2016C94.8677 50.1197 95.2279 49.8885 95.4763 49.552C95.7246 49.2155 95.8438 48.7971 95.8112 48.3764C95.8112 46.2398 94.225 44.6881 92.5285 43.0421C90.6895 41.2593 88.777 39.4105 88.777 36.6372C88.777 35.5807 89.0344 33.7272 90.7723 33.2131C91.4144 33.0618 92.0824 33.0683 92.7216 33.2323C93.3608 33.3962 93.9531 33.7128 94.4503 34.1564L94.4963 34.2035C94.5245 34.2262 94.5507 34.2515 94.5744 34.279C96.7261 36.4438 95.5859 37.1654 97.3329 38.2125C95.4939 38.6464 95.31 36.1703 94.4319 34.911L94.3308 34.7695L94.294 34.7271C94.2644 34.6886 94.2321 34.6523 94.1974 34.6186L94.1653 34.5856C93.724 34.181 93.1959 33.889 92.6239 33.7333C92.0519 33.5776 91.4522 33.5626 90.8734 33.6895C89.793 34.0102 89.2183 35.0336 89.2183 36.6466C89.2183 39.2077 91.0573 40.981 92.8228 42.6978C94.5193 44.3438 96.2755 46.0418 96.2525 48.3905C96.283 48.9155 96.1298 49.4344 95.8205 49.8538C95.5111 50.2731 95.066 50.5654 94.5652 50.678C94.6007 50.8336 94.6283 50.9911 94.648 51.1496C94.671 51.3383 94.6848 51.5269 94.694 51.7062C95.1053 51.5351 95.4932 51.31 95.8479 51.0364C96.2753 50.7312 96.6241 50.324 96.8643 49.85C97.1046 49.376 97.2291 48.8493 97.2272 48.3151C97.2272 45.8814 95.1859 43.9194 93.2136 42.0234C91.3746 40.2453 89.6137 38.5615 89.6137 36.5665C89.6137 35.0572 90.2068 34.4629 90.7079 34.2083C91.0179 34.0726 91.3582 34.0269 91.6918 34.0762C95.802 34.2177 93.9905 39.3869 97.8433 38.8964C94.1653 40.6886 93.2779 38.2314 93.1032 37.406C92.9101 36.4863 92.5193 35.2883 92.1561 34.9299C91.9512 34.7195 91.6848 34.5837 91.3976 34.5431C91.2266 34.545 91.0578 34.5819 90.901 34.6516C90.3999 34.8921 90.1194 35.5477 90.1194 36.5382V36.5523ZM83.3841 25.0254C83.4302 25.0525 83.4747 25.0824 83.5174 25.115C83.6538 25.2014 83.7829 25.2992 83.9036 25.4074C84.1674 25.3688 84.4217 25.2792 84.653 25.1433C85.0208 24.9311 85.3656 24.7801 85.5311 24.2755C85.6018 24.0199 85.5893 23.7476 85.4956 23.4999C85.4018 23.2522 85.2319 23.0427 85.0116 22.903C85.0399 22.9976 85.0523 23.0965 85.0484 23.1954C84.9886 24.2943 83.899 24.3415 83.3841 25.0254ZM82.037 24.3462C82.3834 24.4781 82.7199 24.6358 83.0439 24.8179C83.2386 24.4393 83.4813 24.0888 83.7657 23.7755C84.2254 23.3039 84.5013 22.9737 83.7657 22.3606C83.501 22.1195 83.2181 21.9003 82.9197 21.705C82.9434 22.1057 82.9093 22.5078 82.8186 22.8983C82.6194 23.4073 82.3567 23.8877 82.037 24.3274V24.3462ZM80.4555 22.5776C80.4931 23.0059 80.4931 23.4368 80.4555 23.8651C80.7928 23.9328 81.126 24.021 81.4531 24.1293C81.4742 23.5729 81.5701 23.0221 81.7382 22.4927C81.8892 22.1243 82.1042 21.7871 82.3726 21.4975C82.0258 21.4637 81.6772 21.4526 81.329 21.4645C80.3773 21.4598 80.3819 21.9031 80.4555 22.5587V22.5776ZM78.9291 23.0492C79.0258 23.3044 79.1693 23.5382 79.352 23.7378C79.5051 23.7278 79.6587 23.7278 79.8118 23.7378H80.0187C79.9589 22.9219 79.1865 22.1059 79.7934 21.2381C79.8522 21.1573 79.9236 21.0872 80.0049 21.0306C79.7482 20.9983 79.4882 21.0526 79.2642 21.1853C79.0402 21.3181 78.8645 21.522 78.7636 21.7663C78.6986 21.9797 78.6798 22.2049 78.7084 22.4265C78.7369 22.6481 78.8123 22.8606 78.9291 23.0492V23.0492ZM77.4947 25.5961C77.7451 25.4288 78.0198 25.3031 78.3084 25.2235C77.9315 25.0307 77.6134 24.7354 77.3889 24.3698C77.2786 24.8603 76.8556 25.4168 77.4947 25.5961ZM76.7728 33.7649C76.8534 33.6334 76.9036 33.4846 76.9195 33.3301C76.9355 33.1756 76.9167 33.0194 76.8648 32.8735C76.6855 32.4019 76.405 32.166 76.405 31.8925C76.405 31.6189 76.7269 31.4209 77.0441 31.1096C77.3613 30.7983 77.6556 30.0908 77.5038 29.7701C77.438 29.6014 77.3367 29.4497 77.2072 29.3258C77.0776 29.2019 76.9231 29.1088 76.7545 29.0532C76.3821 28.9259 76.2947 28.7278 76.4418 28.4448C76.5889 28.1618 77.0395 28.1854 77.3337 28.4448C77.5551 28.6541 77.7238 28.9153 77.8255 29.2061C77.9272 29.4968 77.9588 29.8084 77.9176 30.1144C77.7569 30.7214 77.4557 31.2796 77.0395 31.7416C76.7682 32.067 77.1223 32.5009 77.7199 32.6377C78.3176 32.7745 78.69 32.7367 78.7636 32.6377C78.8371 32.5386 78.8187 32.0246 78.9107 31.4256C79.0026 30.8266 79.9038 30.2134 80.6256 30.2323C81.3474 30.2512 81.7887 30.4115 81.6324 30.9445C81.2232 31.6284 80.4003 30.8171 80.4003 30.8171C79.9993 31.0301 79.6672 31.3578 79.444 31.7604C79.2095 32.35 79.2877 32.9443 78.9383 33.048C78.5889 33.1518 77.7981 32.8829 77.5866 33.1565C77.4279 33.3729 77.3223 33.6252 77.2786 33.8923C77.2786 33.8923 78.4004 35.5902 79.5313 34.9299C79.9911 34.661 80.6348 33.6093 81.3704 33.2367C82.2025 32.8263 83.168 32.2934 83.168 31.0483C83.168 30.9917 83.168 30.5483 83.168 30.3927C83.1174 29.5013 83.3657 29.3032 83.4714 29.157C83.6393 28.997 83.7684 28.799 83.8482 28.5786C83.9281 28.3583 83.9565 28.1219 83.9312 27.8883C84.5335 27.61 85.4254 27.3128 85.9173 28.1477C86.2437 26.8318 84.0783 26.662 83.6415 26.7044C83.4071 26.7374 83.5266 27.0204 83.4254 27.0157C83.3243 27.011 83.1588 26.8365 82.9657 26.6667C82.4 26.2704 81.7803 25.9621 81.1267 25.7517C80.2815 25.5304 79.4102 25.432 78.5383 25.4593C78.1711 25.4892 77.82 25.6267 77.5268 25.8555C77.297 26.063 77.0395 26.2847 76.7636 26.5063C76.4327 26.7714 76.1588 27.1038 75.9591 27.4826C75.885 27.6361 75.819 27.7935 75.7614 27.9543C76.0446 27.6415 76.4158 27.4272 76.8234 27.3411C76.9033 27.3565 76.9796 27.3869 77.0487 27.4308C77.0487 27.4308 75.9729 27.959 75.6281 28.6334C75.2832 29.3079 75.4717 30.2606 75.5867 30.8549C75.6793 31.36 75.6066 31.8823 75.3798 32.3406C75.1913 32.7226 75.0074 33.1989 75.3798 33.6234C75.7522 34.0479 76.7728 33.7649 76.7728 33.7649ZM72.3408 42.8818L74.327 43.5609C74.3723 41.9193 74.6831 40.2968 75.2465 38.7596C74.2803 38.8472 73.3073 38.8107 72.35 38.6511L72.3408 42.8818ZM74.3178 44.2448L72.3408 43.5892V47.8812C72.727 47.4331 73.7477 46.3625 74.4971 45.4852C74.4117 45.0761 74.3518 44.6618 74.3178 44.2448V44.2448ZM66.7043 32.7132C66.7043 33.4772 67.0215 33.5904 67.0491 33.4725C67.0693 33.345 67.1148 33.2231 67.1828 33.1144C67.2508 33.0057 67.3399 32.9124 67.4445 32.8405C67.4193 33.0658 67.4317 33.2939 67.4813 33.5149C67.5456 33.7036 67.6054 33.8404 68.033 33.8404C68.364 33.8404 68.4927 33.2697 68.5479 32.8971C68.5479 32.8405 68.5939 32.8452 68.6031 32.8971C68.6812 33.2791 68.8467 33.8404 69.1639 33.8404C69.2729 33.8633 69.3862 33.8422 69.4804 33.7816C69.5746 33.721 69.6424 33.6255 69.6697 33.5149C69.7192 33.2939 69.7317 33.0658 69.7065 32.8405C69.8969 32.974 70.0314 33.176 70.0835 33.4065C70.157 33.6423 70.4926 33.4725 70.4926 32.7132C70.4938 32.5334 70.4604 32.3551 70.3941 32.1886C70.3279 32.0222 70.2302 31.8708 70.1067 31.7432C69.9832 31.6157 69.8364 31.5144 69.6745 31.4453C69.5127 31.3762 69.3392 31.3407 69.1639 31.3407H68.033C67.8577 31.3407 67.6842 31.3762 67.5224 31.4453C67.3606 31.5144 67.2137 31.6157 67.0902 31.7432C66.9667 31.8708 66.869 32.0222 66.8028 32.1886C66.7365 32.3551 66.7031 32.5334 66.7043 32.7132V32.7132ZM46.3511 32.7132C46.3511 33.4772 46.6683 33.5904 46.6959 33.4725C46.7161 33.345 46.7616 33.2231 46.8296 33.1144C46.8976 33.0057 46.9867 32.9124 47.0913 32.8405C47.0661 33.0658 47.0785 33.2939 47.128 33.5149C47.1924 33.7036 47.2522 33.8404 47.6797 33.8404C48.0108 33.8404 48.1395 33.2697 48.1947 32.8971C48.1947 32.8405 48.2406 32.8452 48.2498 32.8971C48.328 33.2791 48.4935 33.8404 48.8107 33.8404C48.9196 33.8633 49.033 33.8422 49.1272 33.7816C49.2214 33.721 49.2892 33.6255 49.3165 33.5149C49.366 33.2939 49.3784 33.0658 49.3532 32.8405C49.5436 32.974 49.6782 33.176 49.7302 33.4065C49.8038 33.6423 50.1394 33.4725 50.1394 32.7132C50.1406 32.5334 50.1072 32.3551 50.0409 32.1886C49.9747 32.0222 49.877 31.8708 49.7535 31.7432C49.63 31.6157 49.4831 31.5144 49.3213 31.4453C49.1595 31.3762 48.986 31.3407 48.8107 31.3407H47.6797C47.5045 31.3407 47.3309 31.3762 47.1691 31.4453C47.0073 31.5144 46.8605 31.6157 46.737 31.7432C46.6135 31.8708 46.5158 32.0222 46.4495 32.1886C46.3833 32.3551 46.3498 32.5334 46.3511 32.7132V32.7132ZM40.2501 25.1291C40.5223 25.3274 40.7613 25.5695 40.9582 25.846C41.6938 25.9168 41.4547 25.1622 41.5421 24.6151C41.167 24.9074 40.7193 25.0855 40.2501 25.1291V25.1291ZM36.8204 23.8085H37.0273C37.1799 23.791 37.3335 23.7831 37.487 23.785C37.6697 23.5854 37.8133 23.3516 37.91 23.0964C38.0178 22.9117 38.0866 22.7059 38.1119 22.4922C38.1373 22.2785 38.1186 22.0618 38.0571 21.8559C37.9595 21.609 37.7857 21.4016 37.5624 21.2653C37.3392 21.1291 37.0786 21.0715 36.8204 21.1013C36.9013 21.1568 36.9714 21.2271 37.0273 21.3088C37.6434 22.1955 36.871 22.9926 36.8204 23.8085ZM34.5216 21.5069C34.7885 21.7979 35.0032 22.1347 35.1561 22.5021C35.3223 23.032 35.4182 23.5825 35.4411 24.1387C35.7683 24.0304 36.1014 23.9422 36.4388 23.8746C36.4009 23.4447 36.4009 23.0122 36.4388 22.5823C36.517 21.9314 36.5216 21.4881 35.5837 21.4739C35.2186 21.4572 34.8529 21.4682 34.4895 21.5069H34.5216ZM33.1148 23.7803C33.3967 24.0973 33.6391 24.449 33.8366 24.8273C34.1604 24.648 34.4952 24.4904 34.8389 24.3557C34.5009 23.9125 34.224 23.4237 34.0159 22.903C33.9271 22.517 33.8915 22.1201 33.9102 21.7239C33.6152 21.9238 33.3341 22.1444 33.0688 22.3842C32.347 22.9785 32.6229 23.3228 33.0826 23.7803H33.1148ZM33.3631 25.1197L33.4642 25.0254C32.9447 24.3557 31.8597 24.3132 31.7999 23.1954C31.7942 23.0952 31.805 22.9947 31.8321 22.8983C31.6094 23.0382 31.4372 23.2489 31.3418 23.4983C31.2464 23.7477 31.2329 24.0222 31.3034 24.2802C31.4643 24.7848 31.8137 24.9358 32.1769 25.1527C32.4097 25.2851 32.6633 25.3745 32.9263 25.4168C33.0549 25.3091 33.19 25.2099 33.3309 25.1197H33.3631ZM32.7746 27.7562C33.1102 27.6996 33.6941 27.8883 32.8665 29.0013C32.1217 30.0012 31.4873 31.0907 31.6574 32.7414C31.8275 34.3922 32.4344 35.1987 31.8643 36.8117C31.2942 38.4247 32.1585 40.3915 32.1585 40.3915C32.1585 40.3915 32.5401 39.4482 32.8022 38.5049C33.1089 39.9281 33.7821 41.2408 34.7515 42.3063C34.7515 42.3063 34.4067 41.1037 35.0733 38.6275C35.5055 42.3205 39.5789 42.0045 41.8777 43.9524C42.8543 44.8193 43.7249 45.8043 44.4707 46.886V34.1234H44.8477C44.7575 33.4097 44.6177 32.7036 44.4293 32.0104C44.0704 30.5909 43.3592 29.291 42.365 28.2373C41.2064 26.9921 41.1467 26.7846 40.7835 26.0866C40.6115 25.7588 40.357 25.4844 40.0465 25.292C39.736 25.0995 39.3808 24.996 39.018 24.9924C38.2456 24.9452 35.6848 25.3414 32.7424 27.7562H32.7746ZM32.2229 29.322C32.3746 29.1334 32.9263 28.4731 32.8941 28.1241C32.6367 28.0439 29.9471 28.0958 30.2689 29.6239C30.9172 28.6334 32.039 29.3032 32.2229 29.322ZM30.7103 55.2105C34.4803 56.7999 33.6481 61.1673 33.6113 61.8135C33.5332 63.2284 34.7423 63.3982 35.7446 64.4547C37.0825 65.8696 38.3146 67.3222 38.4617 67.3741C38.8617 67.4401 41.988 67.8175 42.1857 67.6854C41.2662 65.7139 37.0595 64.0868 36.163 62.2945C35.6355 61.1826 35.4588 59.9298 35.6572 58.7101C35.8089 57.7055 36.7698 52.258 30.7103 55.2105ZM40.0662 50.7016C39.8307 50.58 39.5863 50.4775 39.3352 50.395C34.3148 52.9513 32.1815 51.3666 29.8506 54.9558L30.1126 55.0124C30.6206 54.5275 31.2011 54.1294 31.8321 53.8333C33.1884 53.1635 34.5446 52.9277 36.2779 52.4184C37.6095 52.0259 38.8837 51.4516 40.0662 50.711V50.7016ZM71.6098 58.1016C71.4834 58.1214 71.356 58.134 71.2282 58.1394V62.9926H66.8054V62.9313L66.7778 62.8275L66.7457 62.7096L66.7181 62.6011L66.6859 62.4926L66.6583 62.3747L66.6261 62.2662L66.5939 62.1578L66.5663 62.0446L66.5342 61.9361L66.5066 61.8229L66.4744 61.7097V61.6767H61.7941V61.7097L61.7619 61.8229L61.7252 61.9361L61.693 62.0446L61.6562 62.1578L61.624 62.2662L61.5918 62.3747L61.5551 62.4926L61.5183 62.6011L61.4861 62.7096L61.4493 62.8275L61.4217 62.9313V62.9926H55.9047V62.9313V62.8275V62.7096V62.6011V62.4926V62.3747V62.2662V62.1578V62.0446V61.9361V61.8229V61.7097V61.5965V61.488V61.3796V61.2664V61.1532V61.0447V60.9881H51.2612V61.0447V61.1532V61.2664V61.3796V61.488V61.5965V61.7097V61.8229V61.9361V62.0446V62.1578V62.2662V62.3747V62.4926V62.6011V62.7096V62.8275V62.9313C51.244 62.8951 51.224 62.8604 51.2014 62.8275C51.1796 62.7865 51.155 62.7471 51.1279 62.7096C51.1279 62.6718 51.0773 62.6388 51.0497 62.6011L50.944 62.4926C50.9017 62.4508 50.8572 62.4115 50.8107 62.3747C50.7555 62.337 50.7003 62.2993 50.6405 62.2662C50.313 62.0866 49.9294 62.0476 49.5739 62.1578C49.4848 62.1849 49.3985 62.2213 49.3165 62.2662V62.2662C49.2567 62.2993 49.2015 62.337 49.1463 62.3747L49.0084 62.4926C48.9724 62.5264 48.9386 62.5627 48.9073 62.6011V62.6011C48.8797 62.6388 48.8521 62.6718 48.8291 62.7096C48.8005 62.747 48.7743 62.7864 48.751 62.8275L48.7004 62.9313C48.687 62.9501 48.6761 62.9707 48.6682 62.9926H45.6155V62.6011V62.2851V62.0634V61.0636V60.7287V60.6249V60.0684V59.9269V59.8137V58.6063V58.512V58.3988V58.1913C45.4867 58.1913 45.358 58.1913 45.2293 58.1535V61.7474V66.129C45.2293 68.2089 46.5074 69.223 48.3556 69.223H68.4835C70.3225 69.223 71.6098 68.2089 71.6098 66.129V60.7051V58.1016ZM52.098 58.3752V58.512V58.6204V58.9506V59.0638V59.3987H54.6404V58.6063V58.4978V58.3846V57.6017V57.2716V57.1631V56.8282V56.6254V56.5122V56.399V56.0689H52.4152V56.1821V56.399V56.5122V56.6254V56.8471V57.064V57.1819V57.5121V57.6206V57.9554V58.0733V58.4035L52.098 58.3752ZM54.5254 55.8472V55.8142V55.1539V55.0124H52.1026V55.1539V55.8142V55.8472H54.5254ZM51.7669 59.6581V59.7147V59.8184V59.9316V60.0448V60.1533V60.2665V60.375V60.4929V60.6013V60.7051V60.7664H55.2105V60.7051V60.6013V60.4929V60.375V60.2665V60.1533V60.0448V59.9316V59.8184V59.7147V59.6581H51.7669ZM61.647 60.9362V61.0541V61.4692H66.6721V61.0541V60.9362H61.647ZM66.3181 60.691V60.6108V60.0542V59.9269V59.8137V59.6533H62.0378V59.8137V59.9269V60.0401V60.5966V60.6768L66.3181 60.691ZM86.138 55.2105C80.0739 52.2533 81.0347 57.696 81.1911 58.6865C81.3903 59.9067 81.2118 61.1602 80.6807 62.271C79.7888 64.0679 75.5591 65.6904 74.6626 67.6618C74.8603 67.7986 77.9866 67.4213 78.3866 67.3505C78.5337 67.3034 79.7658 65.8366 81.1037 64.4311C82.106 63.3793 83.3151 63.1907 83.237 61.7899C83.2002 61.1532 82.368 56.781 86.138 55.2105ZM86.9977 54.9558C84.4737 51.8524 82.9749 51.9137 78.0234 48.7395C78.0234 48.7395 77.6786 48.9282 77.1636 49.2819C78.3912 50.4375 83.4898 51.7203 86.7311 55.0124L86.9977 54.9558ZM94.1055 56.432C93.9627 55.6861 93.9627 54.9188 94.1055 54.1729C94.26 53.1889 94.2909 52.1888 94.1974 51.1968C93.9722 49.2395 92.432 48.2726 90.3033 46.952L89.6919 46.5228C88.7183 45.8058 87.7964 45.0177 86.9334 44.1646C85.8162 43.0657 85.4484 40.8961 84.0829 39.4812C83.5785 38.9758 83.107 38.437 82.6715 37.8682C81.1267 36.0901 81.5864 34.6846 82.0002 34.029C82.2531 33.6376 82.7726 33.1329 82.7082 33.0857C82.6439 33.0386 82.3956 33.3357 82.1198 33.5008C81.7705 33.6774 81.4508 33.9099 81.1727 34.1894L80.6486 34.694C79.9727 35.3308 78.6073 36.6655 76.9154 34.2884C76.5004 34.4118 76.0573 34.3902 75.6556 34.2271C75.8258 35.7364 76.9384 35.5713 78.1567 35.6892C77.8475 35.8326 77.5214 35.934 77.1866 35.9911C76.8786 37.0664 74.5384 39.6133 75.035 44.8532L75.4947 44.2259C75.3622 41.6365 76.1223 39.0819 77.6418 37.0098C77.6694 36.9674 77.7337 37.0098 77.7107 37.057C76.6625 39.3161 76.189 40.8301 76.451 42.7638C77.6234 40.533 78.1751 40.0802 78.9015 39.8585C76.8924 41.6319 77.628 42.9148 74.6304 46.5275L72.681 48.8244L72.3362 49.2348C72.042 49.5838 71.7707 49.8904 71.6006 50.0696V34.8308H45.2293V48.6075V50.6261C45.2293 50.6261 44.9488 50.1167 44.4891 49.3668C44.3373 49.1216 44.1626 48.8433 43.9741 48.5556C42.8799 46.8813 41.2156 44.6787 39.6663 43.8628C38.4157 43.2119 36.9583 43.1506 35.294 41.297C35.2554 42.0286 35.3425 42.7613 35.5515 43.4619C35.5515 43.4619 33.5516 42.9902 32.7332 40.4198C32.6505 40.9753 32.4345 41.501 32.1047 41.9497C31.7749 42.3984 31.3415 42.7559 30.8436 42.9902C30.1899 43.9777 29.3581 44.8277 28.3931 45.4946C28.0157 45.8824 27.6048 46.2344 27.1656 46.5464C26.7656 46.8247 26.384 47.0794 26.0116 47.3246C24.1726 48.5415 22.8439 49.4234 22.6371 51.2062C22.5483 52.1984 22.5792 53.1979 22.729 54.1823C22.874 54.928 22.874 55.6958 22.729 56.4415C22.5221 57.1772 21.6394 58.0026 20.9314 58.6676C20.637 58.9226 20.3633 59.2018 20.113 59.5024C19.9291 59.7665 19.9889 60.4929 20.113 61.2333C20.3032 60.878 20.591 60.5877 20.9406 60.3985C20.9746 60.3784 21.014 60.3701 21.053 60.3746C21.0921 60.3792 21.1286 60.3964 21.1574 60.4238C21.1862 60.4512 21.2057 60.4874 21.213 60.527C21.2203 60.5665 21.215 60.6075 21.198 60.6438C20.7932 61.5612 20.5251 62.5358 20.4027 63.535C20.4027 63.8274 20.4027 64.1481 20.4027 64.4782C20.4027 65.4215 20.4027 66.4639 20.6509 66.9732C20.7536 67.1695 20.882 67.3504 21.0325 67.5109C21.1037 67.5877 21.1805 67.6586 21.2624 67.7231C21.5662 67.9257 21.8957 68.0844 22.2417 68.1948C22.4001 68.2455 22.5539 68.3102 22.7014 68.3882L22.8256 68.4495C23.2052 68.6853 23.6132 68.8692 24.0393 68.9966C24.2926 69.0474 24.5545 69.0278 24.7979 68.94L24.8669 68.8881C25.2163 68.69 25.3542 68.3174 25.6714 68.3174C25.7125 68.3105 25.7544 68.3105 25.7955 68.3174V68.3174C26.1634 68.3174 26.4714 68.4117 26.6323 68.2089C26.6861 68.1422 26.7267 68.0653 26.7518 67.9825V67.9212C26.807 67.3458 26.453 67.2845 25.4829 66.9779C24.5128 66.6714 22.6325 66.5063 22.421 64.8084C22.2095 63.1105 21.9612 61.5399 23.5474 60.0637C25.1335 58.5874 27.4874 58.828 28.4897 54.8756C29.5149 50.1922 31.8091 49.4659 31.8091 49.4659C30.8618 50.5958 30.2549 51.9836 30.062 53.4607C32.2459 51.1544 35.0458 51.5741 37.7353 49.6875C34.8251 47.7632 37.0503 43.8109 37.0503 43.8109C37.0503 43.8109 37.7583 46.8011 39.726 47.9755C40.7863 48.5969 41.6987 49.4523 42.3972 50.4799C42.8005 51.0813 43.1107 51.7432 43.3167 52.4419C43.7443 53.8946 43.7764 55.6633 44.4615 56.5641C44.6476 56.817 44.9091 57.0008 45.2063 57.0876C45.3323 57.1232 45.4619 57.1438 45.5925 57.1489H45.8637C46.1809 57.1489 46.6775 57.1159 46.843 56.7716C46.9149 56.5354 46.8934 56.2796 46.7832 56.0594C46.7005 55.7953 46.6223 55.5265 46.535 55.2624C46.2959 54.5172 46.0292 52.9041 46.0108 52.8711H53.1278V53.4701L53.0634 53.5126L52.8933 53.621L52.7232 53.7295L52.5485 53.8427L52.3738 53.9559L52.2037 54.0644L52.0842 54.1398H52.4658V54.8049H54.153V54.1398H54.5071L54.3921 54.0644L54.222 53.9559L54.0565 53.8427L53.8818 53.7295L53.7209 53.621L53.5508 53.5126L53.4772 53.4607V52.8523H70.7547C70.7271 52.9277 70.3225 55.0313 70.2949 55.2105C70.2214 55.4793 70.1294 55.7387 70.0467 56.0028C69.9352 56.2243 69.9137 56.482 69.9869 56.7197C70.1524 57.0593 70.6489 57.0829 70.9662 57.0923H71.2328C71.3618 57.0891 71.4899 57.0701 71.6144 57.0357C71.9099 56.9534 72.1704 56.7725 72.3546 56.5216C73.0442 55.6255 73.0856 53.8474 73.5132 52.3853C73.7384 51.6176 74.0898 50.8951 74.5522 50.2488C75.2356 49.2986 76.1046 48.505 77.1039 47.9189C79.067 46.7445 82.4186 45.4239 82.9933 41.4338C83.2783 44.1505 81.8301 46.3059 79.2739 48.084C81.1957 49.9139 84.1703 50.5082 86.8276 53.7437C86.635 52.1524 86.0069 50.6496 85.0162 49.4093C85.0162 49.4093 87.315 50.1356 88.3402 54.819C89.3425 58.7997 91.724 58.5591 93.2825 60.0354C94.8411 61.5116 94.6112 63.0822 94.4043 64.7754C94.1974 66.4686 92.3125 66.6148 91.3424 66.9449C90.3723 67.2751 90.0229 67.3364 90.0781 67.8882V67.9542C90.1043 68.035 90.1448 68.1102 90.1976 68.1759C90.3539 68.3787 90.6574 68.3033 91.0297 68.2844C91.0693 68.2774 91.1097 68.2774 91.1493 68.2844C91.4665 68.2844 91.609 68.657 91.9538 68.8598L92.0274 68.8881C92.2708 68.976 92.5327 68.9955 92.786 68.9447C93.2121 68.8173 93.6201 68.6334 93.9997 68.3976L94.1239 68.3363C94.2714 68.2595 94.4252 68.1964 94.5836 68.1476C94.9318 68.0392 95.2631 67.8804 95.5675 67.676C95.8235 67.4761 96.0325 67.2199 96.179 66.9261C96.4226 66.4167 96.4272 65.3649 96.4272 64.4311C96.4272 64.0962 96.4272 63.7708 96.4272 63.4878C96.3019 62.4892 96.0339 61.5151 95.6319 60.5966C95.6148 60.5603 95.6096 60.5194 95.6169 60.4798C95.6242 60.4402 95.6437 60.4041 95.6725 60.3766C95.7013 60.3492 95.7378 60.332 95.7768 60.3274C95.8159 60.3229 95.8553 60.3313 95.8893 60.3514C96.2436 60.5394 96.535 60.8317 96.7261 61.1909C96.8272 60.4504 96.8916 59.7194 96.7261 59.4553C96.4758 59.1547 96.2021 58.8755 95.9077 58.6204C95.2089 57.9743 94.317 57.1489 94.1055 56.4132V56.432ZM97.0111 103.318C97.0433 103.412 97.0111 103.459 96.9192 103.459H95.9353C95.9057 103.462 95.8761 103.454 95.8523 103.435C95.8284 103.417 95.8122 103.39 95.8066 103.36L95.5169 102.554H93.3699L93.0802 103.36C93.0727 103.391 93.0546 103.418 93.0293 103.436C93.0039 103.454 92.9731 103.463 92.9423 103.459H91.9722C91.8711 103.459 91.8389 103.412 91.8803 103.318L93.7653 98.361C93.7737 98.3311 93.7922 98.3053 93.8175 98.288C93.8427 98.2708 93.8731 98.2632 93.9032 98.2667H94.9882C95.0191 98.262 95.0505 98.269 95.0768 98.2864C95.103 98.3037 95.1222 98.3302 95.1307 98.361L97.0111 103.318ZM95.1353 101.493L94.4457 99.5778H94.4227L93.7377 101.493H95.1353ZM83.1542 78.6935C83.2969 78.6935 83.4337 78.6354 83.5346 78.5319C83.6354 78.4284 83.6921 78.2881 83.6921 78.1417V74.1894C83.6909 74.0438 83.6337 73.9047 83.5329 73.8022C83.4322 73.6997 83.2961 73.6422 83.1542 73.6422H72.2811C72.1396 73.6422 72.004 73.6999 71.904 73.8025C71.8039 73.9051 71.7478 74.0443 71.7478 74.1894V94.7812C71.7471 94.8535 71.7605 94.9251 71.787 94.9921C71.8136 95.059 71.8527 95.1198 71.9023 95.1712C71.9519 95.2225 72.0109 95.2632 72.0759 95.291C72.1409 95.3188 72.2106 95.3331 72.2811 95.3331H76.2763C76.3473 95.3337 76.4178 95.3199 76.4836 95.2924C76.5494 95.265 76.6092 95.2244 76.6596 95.1731C76.7101 95.1218 76.7501 95.0608 76.7774 94.9935C76.8048 94.9263 76.8188 94.8541 76.8188 94.7812V87.0793H82.7956C82.9383 87.0793 83.0751 87.0212 83.176 86.9177C83.2768 86.8142 83.3335 86.6739 83.3335 86.5275V82.7214C83.3335 82.6491 83.3196 82.5776 83.2925 82.5109C83.2654 82.4442 83.2257 82.3837 83.1757 82.3328C83.1257 82.2819 83.0663 82.2417 83.0011 82.2145C82.9359 82.1873 82.866 82.1736 82.7956 82.1742H76.8188V78.7077L83.1542 78.6935ZM78.9107 98.2667H77.9912C77.9756 98.2643 77.9596 98.2657 77.9446 98.2708C77.9296 98.2759 77.9159 98.2845 77.9048 98.2959C77.8936 98.3074 77.8852 98.3214 77.8802 98.3368C77.8753 98.3522 77.8739 98.3685 77.8762 98.3846V101.271C77.8997 101.577 77.8148 101.882 77.6372 102.129C77.5438 102.225 77.4314 102.299 77.3076 102.346C77.1839 102.394 77.0516 102.413 76.92 102.403C76.789 102.412 76.6577 102.393 76.5348 102.345C76.4119 102.298 76.3002 102.225 76.2073 102.129C76.0313 101.881 75.9481 101.577 75.9729 101.271V98.3846C75.9729 98.3044 75.9315 98.2667 75.8487 98.2667H74.9292C74.9136 98.2643 74.8976 98.2657 74.8826 98.2708C74.8676 98.2759 74.854 98.2845 74.8428 98.2959C74.8316 98.3074 74.8232 98.3214 74.8183 98.3368C74.8133 98.3522 74.812 98.3685 74.8143 98.3846V101.351C74.7953 101.647 74.8348 101.943 74.9304 102.223C75.026 102.503 75.1757 102.76 75.3706 102.978C75.8116 103.351 76.365 103.554 76.9361 103.554C77.5071 103.554 78.0605 103.351 78.5015 102.978C78.6964 102.76 78.8461 102.503 78.9417 102.223C79.0373 101.943 79.0768 101.647 79.0578 101.351V98.3846C79.0302 98.3186 78.9888 98.2808 78.9107 98.2808V98.2667Z" fill="white"/>
</svg>
